<svg xmlns="http://www.w3.org/2000/svg" xmlns:xlink="http://www.w3.org/1999/xlink" width="670" height="480" viewBox="0 0 177.271 127"><defs><linearGradient id="a"><stop offset="0"/><stop offset="1" stop-color="#9b1a0a"/></linearGradient><linearGradient xlink:href="#a" id="b" x1="50.271" y1="315.959" x2="50.271" y2="246.91" gradientUnits="userSpaceOnUse" gradientTransform="matrix(1 0 0 1.69634 74.083 -510.337)"/></defs><path fill="url(#b)" d="M0-87.313h177.271V26.688H0z" transform="translate(0 100.542)"/><path d="M86.962 83.307C86 64.94 88.139 48.893 83.809 39.047c-1.684-3.32-3.784-10.016-7.807-9.22-4.022.794-22.522 5.939-25.61 5.284-3.086-.655-15.274-8.368-18.642-8.653-3.368-.284-16.931 2.813-19.223 4.45-2.292 1.637-10.94 22.02-7.573 24.032 3.368 2.011 7.493-2.403 3.789-6.455 3.336 1.557 4.396 3.274 4.537 5.005.14 1.73-6.923 10.898-9.916 10.57C.37 63.733 0 58.208 0 58.208V0H177.271v63.5s-.936 3.114-3.114 4.984c2.312-15.621-.262-15.088-2.18-20.186-.872-2.32-3.292-7.872-6.94-8.293-3.648-.421-10.474.816-14.697-2.36-4.223-3.176-8.588-5.147-16.525-7.792-7.938-2.646-15.18 1.248-20.258 1.496-5.078.248-8.796-3.381-11.405-3.273-2.609.108-8.873 1.008-11.404 12.519-2.531 11.511-3.625 18.516-3.786 42.712z" fill="#ef3a0c"/><path d="M50.838 47.043C19.578 46.616 3.731 115.64 0 127c21.167 0 61.453.083 86.492.083 45.8-.083 56.383-.083 90.802.237-7.512-25.27-25.199-78.942-55.562-79.375 5.575 1.637 7.098 14.042 2.622 20.847-2.803 4.26 0 0-5.292 2.645 5.292 0 2.646 2.646-2.116 6.35-8.122 3.701-17.143 3.512-24.938 4.498-.529-.264-.86-3.44-1.124-4.498-.363-1.583-.542-2.694-.812-3.33.42.646.968 2.364 2.966 3.781 2.873 2.038 4.952-8.552 3.567-10.439.188 2.879-2.872 10.406-3.358 6.273-.225-1.915-1.257-1.007-1.206-1.312.163-.957.493-1.412.546-1.938.053-.527 1.13-2.98 1.445-3.48.316-.5-1.035.342-1.764-3.632-.068-.368-1.278-6.467.133-6.97a1.842 1.842 0 0 0-.679-.248c-.642-.09-1.334.22-1.737.633-.43.107-.708.367-.988.549.517-.027.759.259 1.02.5-.002.108-.004.207-.01.327-.41.099-.681-.033-1.224.348.544-.039.916.206 1.177.455-.008.11-.019.223-.028.336-.34-.018-.653-.118-1.162.124.491.047.87.31 1.097.574l-.037.35c-.365-.007-.684-.134-1.222.123.518.05.91.341 1.132.619-.02.157-.04.31-.063.466-.39-.044-.689-.243-1.29-.052.63.15 1.023.641 1.146.98-.022.124-.045.245-.068.365-.46-.003-.756-.27-1.422-.058.729.172 1.142.805 1.185 1.126v.002l-.011.044c-.495-.026-.757-.353-1.468-.196.71.239 1.063.907 1.076 1.23 0 .01.001.012.002.019-.227.375-.454.32-.91.45-.613.172-.794.664-1.704.105-.366-.253-.694-.615-.984-1.05.127-.301.36-.629.737-.842-.517-.011-.769.173-1.044.324a7.515 7.515 0 0 1-.203-.418c.146-.31.421-.651.849-.844-.531-.06-.798.113-1.097.24a9.873 9.873 0 0 1-.138-.399 1.74 1.74 0 0 1 1.018-.945c-.588-.123-.873.078-1.234.17-.018-.077-.04-.151-.056-.228.174-.322.597-.74 1.211-.837-.618-.247-.939-.038-1.366-.043a12.04 12.04 0 0 1-.032-.238c.235-.28.736-.604 1.358-.573-.556-.368-.913-.229-1.332-.322.26-.253.72-.507 1.272-.479-.528-.35-.877-.24-1.27-.309a1.732 1.732 0 0 1 1.307-.514c-.559-.37-.917-.228-1.34-.324l.002-.005a1.439 1.439 0 0 1 1.315-.65c-.51-.37-.908-.367-1.045-.47-.55-1.002-1.585.197-2.515-.076.855 1.853.245 5.682.975 7.163.947 1.921.76 3.888.86 5.614.1 1.726.649 1.08.429 3.002-.22 1.923-1.076 8.899-1.34 9.428-5.367-.798-17.987-5.091-22.202-7.465-4.272-2.406-4.786-6.03.506-6.03-5.292-2.645-5.292 2.646-8.094-1.614-4.477-6.805-2.773-17.916 2.802-19.552a22.316 22.316 0 0 0-4.724-.582z"/></svg>