<?xml version="1.0" encoding="UTF-8" standalone="no"?>
<!-- Created with Inkscape (http://www.inkscape.org/) -->

<svg
   xmlns:dc="http://purl.org/dc/elements/1.1/"
   xmlns:cc="http://creativecommons.org/ns#"
   xmlns:rdf="http://www.w3.org/1999/02/22-rdf-syntax-ns#"
   xmlns:svg="http://www.w3.org/2000/svg"
   xmlns="http://www.w3.org/2000/svg"
   xmlns:xlink="http://www.w3.org/1999/xlink"
   xmlns:sodipodi="http://sodipodi.sourceforge.net/DTD/sodipodi-0.dtd"
   xmlns:inkscape="http://www.inkscape.org/namespaces/inkscape"
   width="670"
   height="430"
   viewBox="0 0 177.27083 113.77083"
   version="1.1"
   id="svg3723"
   inkscape:version="0.92.3 (2405546, 2018-03-11)"
   sodipodi:docname="dragon_topwrap.svg">
  <defs
     id="defs3717">
    <marker
       inkscape:stockid="Arrow2Lstart"
       orient="auto"
       refY="0.0"
       refX="0.0"
       id="Arrow2Lstart"
       style="overflow:visible"
       inkscape:isstock="true">
      <path
         id="path864"
         style="fill-rule:evenodd;stroke-width:0.625;stroke-linejoin:round;stroke:#ef3a0c;stroke-opacity:1;fill:#ef3a0c;fill-opacity:1"
         d="M 8.7185878,4.0337352 L -2.2072895,0.016013256 L 8.7185884,-4.0017078 C 6.9730900,-1.6296469 6.9831476,1.6157441 8.7185878,4.0337352 z "
         transform="scale(1.1) translate(1,0)" />
    </marker>
    <marker
       inkscape:stockid="DotL"
       orient="auto"
       refY="0.0"
       refX="0.0"
       id="DotL"
       style="overflow:visible"
       inkscape:isstock="true">
      <path
         id="path1108"
         d="M -2.5,-1.0 C -2.5,1.7600000 -4.7400000,4.0 -7.5,4.0 C -10.260000,4.0 -12.5,1.7600000 -12.5,-1.0 C -12.5,-3.7600000 -10.260000,-6.0 -7.5,-6.0 C -4.7400000,-6.0 -2.5,-3.7600000 -2.5,-1.0 z "
         style="fill-rule:evenodd;stroke:#ef3a0c;stroke-width:1pt;stroke-opacity:1;fill:#ef3a0c;fill-opacity:1"
         transform="scale(0.8) translate(7.4, 1)" />
    </marker>
    <linearGradient
       inkscape:collect="always"
       id="linearGradient885">
      <stop
         style="stop-color:#000000;stop-opacity:1"
         offset="0"
         id="stop881" />
      <stop
         style="stop-color:#9b1a0a;stop-opacity:1"
         offset="1"
         id="stop883" />
    </linearGradient>
    <linearGradient
       inkscape:collect="always"
       xlink:href="#linearGradient885"
       id="linearGradient887"
       x1="50.270832"
       y1="315.95929"
       x2="50.270832"
       y2="246.90991"
       gradientUnits="userSpaceOnUse"
       gradientTransform="matrix(1,0,0,1.6963425,74.083332,-510.33668)" />
    <filter
       inkscape:collect="always"
       style="color-interpolation-filters:sRGB"
       id="filter5384"
       x="-0.016234316"
       width="1.0324686"
       y="-0.056283603"
       height="1.1125672">
      <feGaussianBlur
         inkscape:collect="always"
         stdDeviation="4.4104732"
         id="feGaussianBlur5386" />
    </filter>
  </defs>
  <sodipodi:namedview
     id="base"
     pagecolor="#ffffff"
     bordercolor="#666666"
     borderopacity="1.0"
     inkscape:pageopacity="0.0"
     inkscape:pageshadow="2"
     inkscape:zoom="2.0000001"
     inkscape:cx="219.5351"
     inkscape:cy="253.20177"
     inkscape:document-units="px"
     inkscape:current-layer="layer1"
     showgrid="true"
     units="px"
     showborder="true"
     inkscape:showpageshadow="false"
     inkscape:window-width="2493"
     inkscape:window-height="1385"
     inkscape:window-x="67"
     inkscape:window-y="27"
     inkscape:window-maximized="1"
     inkscape:snap-grids="false"
     showguides="true"
     inkscape:guide-bbox="true"
     inkscape:snap-to-guides="false">
    <inkscape:grid
       type="xygrid"
       id="grid3725"
       empspacing="10"
       dotted="false"
       color="#ff3fff"
       opacity="0.1254902" />
  </sodipodi:namedview>
  <metadata
     id="metadata3720">
    <rdf:RDF>
      <cc:Work
         rdf:about="">
        <dc:format>image/svg+xml</dc:format>
        <dc:type
           rdf:resource="http://purl.org/dc/dcmitype/StillImage" />
        <dc:title />
        <cc:license
           rdf:resource="http://creativecommons.org/publicdomain/zero/1.0/" />
        <dc:creator>
          <cc:Agent>
            <dc:title>@Zaphodious</dc:title>
          </cc:Agent>
        </dc:creator>
      </cc:Work>
      <cc:License
         rdf:about="http://creativecommons.org/publicdomain/zero/1.0/">
        <cc:permits
           rdf:resource="http://creativecommons.org/ns#Reproduction" />
        <cc:permits
           rdf:resource="http://creativecommons.org/ns#Distribution" />
        <cc:permits
           rdf:resource="http://creativecommons.org/ns#DerivativeWorks" />
      </cc:License>
    </rdf:RDF>
  </metadata>
  <g
     inkscape:groupmode="layer"
     id="layer4"
     inkscape:label="Whitespace"
     transform="translate(0,87.312503)"
     style="display:inline">
    <rect
       y="-87.3125"
       x="-3.918818e-006"
       height="114.00128"
       width="177.27083"
       id="rect836"
       style="fill:url(#linearGradient887);fill-opacity:1;stroke:none;stroke-width:0.34357908;stroke-miterlimit:4;stroke-dasharray:none;stroke-opacity:1" />
  </g>
  <g
     inkscape:groupmode="layer"
     id="layer3"
     inkscape:label="Flame"
     transform="translate(0,87.312503)"
     style="display:inline">
    <path
       style="fill:#ef3a0c;fill-opacity:1;stroke:none;stroke-width:1px;stroke-linecap:butt;stroke-linejoin:miter;stroke-opacity:1;filter:url(#filter5384)"
       d="M -13.621094,-5.140625 C -15.01227,-5.1138245 -15.653573,-4.9058029 -15.5,-4.5 c 3.716406,9.8203013 1.5,165.875 6.5,168.375 4.9999999,2.5 -3.055785,3.81489 5.0732236,13.6967 8.129008,9.88181 26.8017744,4.3033 9.1767763,-2.5717 10.6250001,6 -1.6735687,9.84074 -3.5,-2.625 -0.80061377,-5.46434 -1.61636722,-9.30995 2.539214,-13.69822 C 8.4447951,154.2885 10.358113,146.65395 5.7400388,142.59207 1.1219645,138.53018 2.3259362,127.89688 8.1250001,126.625 206.50147,83.116126 460.16729,74.487984 636.5,67.5 505.19459,78.269011 140.51748,19.273283 140.60744,12.995702 c 0.091,-6.349172 106.26294,-9.8007052 121.68713,-5.9583532 15.42419,3.8423522 50.04865,8.5407972 85.04491,3.2861232 8.74906,-1.3136695 42.57121,-4.054793 60.83044,-6.8768996 18.25923,-2.82210666 37.8728,14.6586856 14.93454,9.7634646 21.89549,9.539824 13.949,-14.6634246 1.85616,-15.5277784 C 420.30311,-2.6506435 110.13114,0.12342584 108.10938,-1.2050781 67.139197,-0.39731487 26.65942,-5.376291 -13.621094,-5.140625 Z"
       transform="matrix(0.26458333,0,0,0.26458333,0,-87.312503)"
       id="path5089"
       inkscape:connector-curvature="0"
       sodipodi:nodetypes="ccszcszzscszszcscc" />
    <path
       sodipodi:nodetypes="ccszcszzscszszcscc"
       inkscape:connector-curvature="0"
       id="path5094"
       d="m -3.6039145,-88.672627 c -0.3680819,0.0071 -0.53776,0.06213 -0.4971272,0.169499 0.9832991,2.598288 0.396875,43.88776 1.7197917,44.549218 1.3229167,0.661459 -0.8085098,1.009357 1.3422904,3.623919 2.1508,2.614562 7.0913027,1.138581 2.428022,-0.680429 2.8111979,1.5875 -0.44279835,2.603696 -0.9260416,-0.694531 -0.211829,-1.445774 -0.4276638,-2.463258 0.6718337,-3.624321 1.0994975,-1.161066 1.6057295,-3.181041 0.383864,-4.255746 -1.2218654,-1.074709 -0.90331455,-3.888103 0.631021,-4.224621 C 54.636846,-65.321362 121.75259,-67.604224 168.40729,-69.453128 133.66606,-66.603827 37.178582,-82.213114 37.202384,-83.874057 c 0.02408,-1.679885 28.115403,-2.593103 32.196386,-1.576481 4.080984,1.016623 13.242039,2.259753 22.501466,0.869454 2.314855,-0.347575 11.263634,-1.072831 16.094714,-1.819513 4.83109,-0.746683 10.02051,3.878443 3.95143,2.58325 5.79319,2.524078 3.69068,-3.879698 0.49111,-4.108392 -1.2323,-0.08808 -83.298627,0.645892 -83.833551,0.294392 -10.840027,0.213721 -21.5503009,-1.103633 -32.2078535,-1.04128 z"
       style="fill:#ef3a0c;fill-opacity:1;stroke:none;stroke-width:0.26458332px;stroke-linecap:butt;stroke-linejoin:miter;stroke-opacity:1;opacity:1" />
  </g>
  <g
     inkscape:label="Dragon"
     inkscape:groupmode="layer"
     id="layer1"
     transform="translate(0,-183.22916)"
     style="display:inline">
    <path
       style="fill:#000000;stroke:none;stroke-width:0.26458332px;stroke-linecap:butt;stroke-linejoin:miter;stroke-opacity:1"
       d="M -3.8960604e-6,297.23044 C 21.166662,297.23044 61.452727,297.08319 86.491877,297.08319 c 45.799783,-0.0832 56.383113,-0.0832 90.802203,0.23719 3.59485,-31.92997 43.15875,-106.60335 -11.57218,-99.60175 -1.54553,0.19771 -5.82395,-0.96543 -6.87477,-0.67243 -1.57273,0.4049 -2.67876,0.61411 -3.30797,0.90178 0.63455,-0.43751 2.33784,-1.03214 3.70041,-3.06701 1.95998,-2.92707 -8.68284,-4.72008 -10.53095,-3.28528 2.87211,-0.26531 10.47907,2.59141 6.36119,3.18827 -1.90856,0.27663 -0.97319,1.2842 -1.27912,1.24051 -0.96113,-0.13723 -1.42511,-0.45484 -1.95289,-0.49328 -0.52776,-0.0384 -3.00797,-1.04832 -3.51651,-1.35064 -0.50855,-0.30231 0.36924,1.02522 -3.58402,1.86145 -0.36607,0.0774 -6.43045,1.45135 -6.97116,0.055 -0.13377,0.24311 -0.20558,0.47007 -0.22968,0.68494 -0.0724,0.64462 0.25628,1.32772 0.67959,1.71917 0.11917,0.42691 0.38646,0.69839 0.57573,0.9729 -0.0409,-0.51609 0.23837,-0.76558 0.47153,-1.03369 0.10889,-2e-5 0.20753,-0.001 0.32777,10e-4 0.10982,0.40775 -0.014,0.68295 0.38066,1.21543 -0.053,-0.54301 0.1817,-0.92174 0.42391,-1.18904 0.10913,0.005 0.22279,0.0125 0.33601,0.0189 -0.009,0.34121 -0.10042,0.6558 0.15527,1.15792 0.0345,-0.49187 0.28744,-0.87702 0.54488,-1.11217 0.11742,0.009 0.2316,0.0178 0.35073,0.0278 0.003,0.3655 -0.11542,0.68716 0.15536,1.21892 0.0364,-0.51925 0.31678,-0.91899 0.58835,-1.14901 0.15786,0.0162 0.31147,0.0324 0.46816,0.0505 -0.0335,0.39149 -0.22526,0.69542 -0.0174,1.29079 0.13196,-0.63402 0.61341,-1.03911 0.94806,-1.17112 0.12525,0.0184 0.2461,0.0377 0.36703,0.0573 0.009,0.46042 -0.25003,0.7634 -0.0195,1.42369 0.15267,-0.73355 0.77418,-1.16334 1.0937,-1.21484 8e-4,-1.2e-4 8e-4,9e-5 0.002,-6e-5 0.0143,0.003 0.0295,0.006 0.0437,0.01 -0.012,0.49498 -0.33162,0.76612 -0.15623,1.47287 0.2199,-0.71628 0.87807,-1.08695 1.20099,-1.10866 0.009,-5.3e-4 0.0119,-0.002 0.0185,-0.003 0.38126,0.21695 0.33288,0.44496 0.47396,0.89862 0.18888,0.60742 0.68585,0.77516 0.15126,1.6998 -0.24278,0.37262 -0.59538,0.71028 -1.02216,1.0113 -0.30524,-0.11793 -0.6391,-0.34231 -0.86186,-0.71343 0.003,0.51711 0.19298,0.76388 0.3515,1.03477 -0.13201,0.075 -0.27092,0.14486 -0.41194,0.21374 -0.31337,-0.13683 -0.66279,-0.40313 -0.86694,-0.82547 -0.0456,0.53235 0.13454,0.79489 0.26976,1.09022 -0.1297,0.0517 -0.26106,0.10121 -0.3951,0.14816 -0.34039,-0.13236 -0.77356,-0.45848 -0.97222,-0.99169 -0.10702,0.59119 0.10098,0.87098 0.20266,1.22851 -0.0758,0.0204 -0.14994,0.0435 -0.22629,0.0624 -0.32636,-0.16474 -0.75641,-0.57686 -0.86897,-1.18832 -0.23021,0.62442 -0.0132,0.9397 -0.006,1.3675 -0.0792,0.0134 -0.15821,0.0262 -0.23729,0.0379 -0.28603,-0.22759 -0.62366,-0.7194 -0.60893,-1.34162 -0.3536,0.56538 -0.20449,0.91851 -0.28596,1.33989 -0.2603,-0.25369 -0.52624,-0.70537 -0.51314,-1.25891 -0.33621,0.53757 -0.21734,0.88324 -0.2747,1.27807 -0.2712,-0.24576 -0.56292,-0.71377 -0.54921,-1.29309 -0.35571,0.56877 -0.20302,0.92295 -0.28781,1.3477 -0.002,-1.9e-4 -0.004,-8e-4 -0.005,-8e-4 -0.30002,-0.17837 -0.70132,-0.59778 -0.68476,-1.29719 -0.35593,0.51896 -0.34237,0.91807 -0.44142,1.05718 -0.98768,0.57744 0.2393,1.57885 -0.009,2.51623 1.8288,-0.90412 5.67339,-0.3982 7.13401,-1.16772 1.89486,-0.99829 3.8665,-0.864 5.58894,-1.01029 1.72244,-0.14628 1.06158,-0.67805 2.98924,-0.50962 1.92766,0.16845 8.92442,0.8353 9.46052,1.08554 5.40996,4.41504 -35.73858,11.64115 -49.88505,15.23073 -16.009549,4.06233 -21.914763,-2.88241 -21.646954,2.42944 0.103163,-2.61925 5.015844,0.20542 3.311308,1.14382 -1.704533,0.93839 -5.068433,2.14202 -6.644884,2.73525 -19.084586,7.18171 -88.70291289606,49.21043 -88.70291389606,70.43471 z"
       id="path2118"
       inkscape:connector-curvature="0"
       sodipodi:nodetypes="cccsccccsccccccccccccccccccccccccccccccccccccccccccccccccccccccscccscsscc" />
  </g>
</svg>
