<?xml version="1.0" encoding="UTF-8" standalone="no"?>
<!-- Created with Inkscape (http://www.inkscape.org/) -->

<svg
   xmlns:dc="http://purl.org/dc/elements/1.1/"
   xmlns:cc="http://creativecommons.org/ns#"
   xmlns:rdf="http://www.w3.org/1999/02/22-rdf-syntax-ns#"
   xmlns:svg="http://www.w3.org/2000/svg"
   xmlns="http://www.w3.org/2000/svg"
   xmlns:xlink="http://www.w3.org/1999/xlink"
   xmlns:sodipodi="http://sodipodi.sourceforge.net/DTD/sodipodi-0.dtd"
   xmlns:inkscape="http://www.inkscape.org/namespaces/inkscape"
   width="670"
   height="480"
   viewBox="0 0 177.27083 127"
   version="1.1"
   id="svg3723"
   inkscape:version="0.92.3 (2405546, 2018-03-11)"
   sodipodi:docname="dragon.svg">
  <defs
     id="defs3717">
    <linearGradient
       inkscape:collect="always"
       id="linearGradient885">
      <stop
         style="stop-color:#000000;stop-opacity:1"
         offset="0"
         id="stop881" />
      <stop
         style="stop-color:#9b1a0a;stop-opacity:1"
         offset="1"
         id="stop883" />
    </linearGradient>
    <linearGradient
       inkscape:collect="always"
       xlink:href="#linearGradient885"
       id="linearGradient887"
       x1="50.270832"
       y1="315.95929"
       x2="50.270832"
       y2="246.90991"
       gradientUnits="userSpaceOnUse"
       gradientTransform="matrix(1,0,0,1.6963425,74.083332,-510.33668)" />
  </defs>
  <sodipodi:namedview
     id="base"
     pagecolor="#ffffff"
     bordercolor="#666666"
     borderopacity="1.0"
     inkscape:pageopacity="0.0"
     inkscape:pageshadow="2"
     inkscape:zoom="1.4142136"
     inkscape:cx="310.65419"
     inkscape:cy="181.0591"
     inkscape:document-units="px"
     inkscape:current-layer="layer4"
     showgrid="true"
     units="px"
     showborder="true"
     inkscape:showpageshadow="false"
     inkscape:window-width="1154"
     inkscape:window-height="724"
     inkscape:window-x="1373"
     inkscape:window-y="1049"
     inkscape:window-maximized="0"
     inkscape:snap-grids="true"
     showguides="true"
     inkscape:guide-bbox="true"
     inkscape:snap-to-guides="false">
    <inkscape:grid
       type="xygrid"
       id="grid3725"
       empspacing="10"
       dotted="false"
       color="#ff3fff"
       opacity="0.1254902" />
  </sodipodi:namedview>
  <metadata
     id="metadata3720">
    <rdf:RDF>
      <cc:Work
         rdf:about="">
        <dc:format>image/svg+xml</dc:format>
        <dc:type
           rdf:resource="http://purl.org/dc/dcmitype/StillImage" />
        <dc:title></dc:title>
        <cc:license
           rdf:resource="http://creativecommons.org/publicdomain/zero/1.0/" />
        <dc:creator>
          <cc:Agent>
            <dc:title>@Zaphodious</dc:title>
          </cc:Agent>
        </dc:creator>
      </cc:Work>
      <cc:License
         rdf:about="http://creativecommons.org/publicdomain/zero/1.0/">
        <cc:permits
           rdf:resource="http://creativecommons.org/ns#Reproduction" />
        <cc:permits
           rdf:resource="http://creativecommons.org/ns#Distribution" />
        <cc:permits
           rdf:resource="http://creativecommons.org/ns#DerivativeWorks" />
      </cc:License>
    </rdf:RDF>
  </metadata>
  <g
     inkscape:groupmode="layer"
     id="layer4"
     inkscape:label="Whitespace"
     transform="translate(0,100.54167)"
     style="display:inline">
    <rect
       y="-87.3125"
       x="-3.8954827e-006"
       height="114.00128"
       width="177.27083"
       id="rect836"
       style="fill:url(#linearGradient887);fill-opacity:1;stroke:none;stroke-width:0.34357908;stroke-miterlimit:4;stroke-dasharray:none;stroke-opacity:1" />
  </g>
  <g
     inkscape:groupmode="layer"
     id="layer3"
     inkscape:label="Flame"
     transform="translate(0,100.54167)"
     style="display:inline">
    <path
       style="fill:#ef3a0c;stroke:none;stroke-width:0.26458332px;stroke-linecap:butt;stroke-linejoin:miter;stroke-opacity:0"
       d="m 86.961707,-17.2346 c -0.961676,-18.367735 1.177677,-34.413621 -3.152969,-44.259361 -1.683798,-3.320824 -3.783964,-10.016746 -7.80637,-9.221619 -4.022406,0.795126 -22.522626,5.939828 -25.609589,5.285017 -3.086964,-0.65481 -15.274961,-8.368444 -18.642779,-8.652774 -3.367819,-0.28433 -16.93113,2.812331 -19.222967,4.449357 -2.291837,1.637025 -10.940555,22.020859 -7.57296,24.032062 3.367596,2.011203 7.493419,-2.402347 3.788546,-6.454559 3.336557,1.556449 4.396583,3.274052 4.5369,5.004622 0.140316,1.73057 -6.922281,10.897914 -9.9157,10.570509 C 0.3704,-36.808751 0,-42.333335 0,-42.333335 L 8.3482585e-6,-100.54167 H 58.208341 h 47.624989 42.33334 29.10416 v 63.500002 c 0,0 -0.93544,3.113555 -3.11355,4.984441 2.31201,-15.621903 -0.26215,-15.088172 -2.17981,-20.186339 -0.8729,-2.320627 -3.29205,-7.872397 -6.94028,-8.293346 -3.64823,-0.42095 -10.47462,0.815757 -14.69723,-2.359929 -4.22262,-3.175686 -8.58749,-5.146475 -16.52499,-7.792308 -7.9375,-2.645834 -15.17941,1.248869 -20.25782,1.496709 -5.0784,0.247839 -8.79655,-3.381341 -11.40525,-3.27342 -2.608692,0.107922 -8.872449,1.008102 -11.40381,12.519226 -2.531361,11.511124 -3.625313,18.516096 -3.786383,42.712034 z"
       id="path832"
       inkscape:connector-curvature="0"
       sodipodi:nodetypes="ccsszsccssccccccccsszzzzzc" />
  </g>
  <g
     inkscape:label="Dragon"
     inkscape:groupmode="layer"
     id="layer1"
     transform="translate(0,-169.99999)"
     style="display:inline">
    <path
       style="fill:#000000;stroke:none;stroke-width:0.99999994px;stroke-linecap:butt;stroke-linejoin:miter;stroke-opacity:1"
       d="m 0,480 c 80,0 232.26228,0.31445 326.89844,0.31445 C 500,480 540,480 670.08789,481.21094 610,390 670,480 460.08789,181.21094 470.1622,199.39606 486.91796,234.28201 470,260 c -10.5936,16.10392 0,0 -20,10 20,0 8,16 -10,30 -30.69727,13.98739 -62.79239,7.27072 -92.25195,11 -2,-1.00003 -3.25,-13.00001 -4.25,-17 -1.36968,-5.98326 -2.04751,-10.18331 -3.07032,-12.58984 1.58839,2.44195 3.66159,8.9378 11.21094,14.29296 10.85937,7.7031 18.71715,-32.32459 13.48438,-39.45312 0.71002,10.87831 -10.85757,39.32773 -12.69336,23.70898 -0.85086,-7.239 -4.75283,-3.80758 -4.55664,-4.95898 0.61634,-3.61735 1.86356,-5.33802 2.0625,-7.32812 0.19895,-1.99004 4.26695,-11.25785 5.46093,-13.14844 1.19398,-1.8906 -3.91101,1.29069 -6.66796,-13.73047 -0.25531,-1.39098 -4.82877,-24.44303 0.50195,-26.34375 -0.90488,-0.53016 -1.75509,-0.82457 -2.56445,-0.9375 -2.42808,-0.33902 -5.04242,0.83311 -6.56446,2.39258 -1.62505,0.40679 -2.67795,1.38901 -3.73437,2.07617 1.95402,-0.10205 2.86822,0.97853 3.85742,1.88672 -0.011,0.41144 -0.0167,0.78421 -0.0371,1.23828 -1.55174,0.37342 -2.57888,-0.12234 -4.63086,1.31445 2.057,-0.14513 3.46401,0.78035 4.44922,1.72266 -0.0306,0.41178 -0.0698,0.84045 -0.10547,1.26758 -1.28827,-0.0677 -2.4675,-0.44616 -4.39062,0.46875 1.85486,0.18028 3.28427,1.17529 4.14648,2.17187 -0.0451,0.44274 -0.091,0.87318 -0.14063,1.32227 -1.38118,-0.0265 -2.58445,-0.50603 -4.62109,0.46289 1.9581,0.19049 3.43985,1.29042 4.28125,2.33984 -0.0771,0.59479 -0.15392,1.1735 -0.23828,1.76367 -1.47568,-0.1663 -2.60444,-0.92187 -4.875,-0.19726 2.38196,0.56311 3.86346,2.42335 4.32812,3.70117 -0.0822,0.47131 -0.16735,0.92595 -0.2539,1.38086 -1.74049,-0.0113 -2.85881,-1.02239 -5.37695,-0.21875 2.75594,0.65151 4.31648,3.04342 4.47851,4.25586 3.9e-4,0.003 -4e-4,0.003 0,0.008 -0.0144,0.0537 -0.0266,0.11077 -0.041,0.16406 -1.86891,-0.0956 -2.86075,-1.3309 -5.54883,-0.74023 2.68383,0.90376 4.01726,3.42817 4.0664,4.65039 0.001,0.034 0.006,0.0454 0.01,0.0703 -0.85847,1.41838 -1.71501,1.21238 -3.44336,1.69922 -2.31414,0.65178 -2.99851,2.51233 -6.4375,0.39844 -1.3831,-0.9552 -2.62296,-2.32177 -3.7168,-3.96485 0.47665,-1.14122 1.35837,-2.37976 2.78321,-3.18359 -1.95398,-0.0431 -2.9057,0.65131 -3.94532,1.22266 -0.26982,-0.50638 -0.51973,-1.03834 -0.76562,-1.57813 0.54887,-1.17003 1.59058,-2.46309 3.20703,-3.1914 -2.00668,-0.2264 -3.01694,0.42741 -4.14648,0.9082 -0.18229,-0.49527 -0.3558,-0.99663 -0.51954,-1.50781 0.53472,-1.27257 1.81094,-2.87597 3.84571,-3.57227 -2.22271,-0.4645 -3.30096,0.29287 -4.66211,0.64063 -0.0694,-0.28838 -0.14921,-0.57091 -0.21289,-0.86133 0.65563,-1.21625 2.25649,-2.79909 4.57812,-3.16211 -2.33572,-0.93336 -3.54897,-0.14548 -5.16601,-0.16211 -0.0425,-0.30047 -0.0828,-0.60041 -0.11914,-0.90039 0.88899,-1.05748 2.78151,-2.28304 5.13086,-2.16406 -2.10011,-1.39352 -3.44947,-0.8661 -5.03321,-1.2168 0.98497,-0.95762 2.71857,-1.91641 4.8086,-1.81055 -1.99678,-1.32499 -3.31489,-0.91107 -4.80078,-1.16797 0.95612,-0.99964 2.75405,-2.05413 4.9414,-1.94336 -2.11267,-1.40186 -3.4664,-0.86102 -5.0625,-1.22461 9.2e-4,-0.008 0.003,-0.0157 0.004,-0.0195 0.70447,-1.11537 2.32993,-2.58883 4.9707,-2.45507 -1.92445,-1.3976 -3.43373,-1.38701 -3.94922,-1.7754 -2.08112,-3.79037 -5.98952,0.7434 -9.50586,-0.28906 3.22974,7.00154 0.92688,21.47547 3.68555,27.07227 3.57881,7.2607 2.87072,14.69619 3.24805,21.21875 0.37731,6.52252 2.45372,4.07986 1.62109,11.3457 -0.83265,7.26584 -4.06445,33.6328 -5.06445,35.63281 -20.28207,-3.01684 -68.68757,-13.58592 -84.61727,-22.55604 C 211.23307,279.35305 210,260 230,260 210,250 210,270 199.40625,253.89648 182.48781,228.17882 200,200 210,180 Z"
       transform="matrix(0.26458333,0,0,0.26458333,0,169.99999)"
       id="path2118"
       inkscape:connector-curvature="0"
       sodipodi:nodetypes="ccccccccccccsccccccccccccccccccccccccccccccccccccccccccccccccccccccscccscscc" />
  </g>
  <g
     inkscape:groupmode="layer"
     id="layer2"
     inkscape:label="Text"
     transform="translate(0,100.54167)"
     style="display:none">
    <g
       aria-label="Blak Wurm      Entertainment"
       style="font-style:normal;font-variant:normal;font-weight:normal;font-stretch:normal;font-size:10.58333302px;line-height:1.25;font-family:'Dumbledor 1';-inkscape-font-specification:'Dumbledor 1, ';letter-spacing:0px;word-spacing:0px;display:inline;fill:#000003;fill-opacity:1;stroke:none;stroke-width:0.07937499;stroke-miterlimit:4;stroke-dasharray:none;stroke-dashoffset:0;stroke-opacity:1;paint-order:normal"
       id="text891"
       transform="translate(74.083331,-44.979168)">
      <path
         d="m -34.237899,8.8874795 q 0,1.3642575 -1.576131,1.9326985 -0.687296,0.248047 -1.607137,0.310059 l 0.01033,0.0155 h -0.248046 q -0.07751,0 -0.237712,0.0052 -0.160197,0.0052 -0.237712,0.0052 h -0.237711 l -0.180868,-0.01033 h -0.439249 q 0.26355,-0.268718 0.294555,-0.408244 l 0.04134,-0.475423 V 6.0607788 q 0,-0.3875733 -0.227377,-0.6717936 -0.268717,-0.3307292 -0.361735,-0.3307292 l -0.01033,-0.2480469 0.160197,-0.010335 q 0.702799,-0.046509 1.07487,0.3100585 l 0.10852,0.1756999 q 0.775147,-0.6201172 1.674316,-0.6201172 0.620118,0 1.038697,0.2997233 0.475423,0.3358968 0.475423,0.9353434 0,0.6976319 -0.542603,1.2712402 1.028361,0.5581055 1.028361,1.7156575 z m -1.591634,-2.9042154 q 0,-0.7079671 -0.800984,-0.7079671 -0.341065,0 -0.640788,0.1188558 -0.392741,0.1550293 -0.434082,0.4289144 l 0.0052,0.067179 v 0.8423259 q 0.423747,0.00517 1.307414,0.08785 0.07751,0.00517 0.320394,0.056844 0.242879,-0.377238 0.242879,-0.8940023 z m 0.485759,2.924886 q 0,-0.8526611 -0.764811,-1.3539225 -0.625285,-0.4082438 -1.317749,-0.4082438 -0.268718,0 -0.273886,0.046509 v 3.3899732 q 0,0.08268 0.02584,0.160197 0.02067,0.0052 0.04651,0 0.124024,-0.02067 0.211874,-0.02067 0.72347,0 1.307414,-0.382406 0.764811,-0.5012609 0.764811,-1.4314367 z"
         style="fill:#000003;fill-opacity:1;stroke:none;stroke-width:0.07937499;stroke-miterlimit:4;stroke-dasharray:none;stroke-dashoffset:0;stroke-opacity:1;paint-order:normal"
         id="path893"
         inkscape:connector-curvature="0" />
      <path
         d="m -31.855615,11.150907 h -1.550293 q 0.211873,-0.279053 0.268717,-0.45992 l 0.03101,-0.423747 V 6.1434611 q 0,-0.3824056 -0.377238,-0.3824056 -0.134358,0 -0.377238,0.056844 0.237712,-0.3772379 0.759644,-0.5736083 0.248047,-0.093018 0.940511,-0.2377116 V 10.26724 q 0,0.361735 0.03617,0.480591 0.04134,0.139526 0.268717,0.403076 z"
         style="fill:#000003;fill-opacity:1;stroke:none;stroke-width:0.07937499;stroke-miterlimit:4;stroke-dasharray:none;stroke-dashoffset:0;stroke-opacity:1;paint-order:normal"
         id="path895"
         inkscape:connector-curvature="0" />
      <path
         d="m -27.726668,11.140572 h -1.0542 q -0.129191,0 -0.217041,-0.149862 -0.07235,-0.124023 -0.05684,-0.1757 0.0052,-0.02584 0.02584,-0.08268 -0.609782,0.454753 -1.105876,0.454753 -0.573608,0 -0.935343,-0.258382 -0.413412,-0.289388 -0.413412,-0.842326 0,-1.0231936 0.919841,-1.2712405 0.821655,-0.2222086 1.054199,-0.3255615 0.335897,-0.1498616 0.485758,-0.4289144 -0.428914,-0.2532145 -0.98702,-0.2532145 -0.465087,0 -1.18339,0.1912028 0.63562,-0.5891113 1.62264,-0.5891113 0.485759,0 1.007691,0.1756999 0.346232,0.1653646 0.346232,0.5581054 V 10.62381 q 0,0.02584 0.05168,0.09302 0.124023,0.341065 0.43925,0.423747 z m -1.297079,-0.971517 V 8.5360798 q -0.242879,0.2532145 -0.558105,0.361735 -0.63562,0.2222087 -0.713135,0.2738851 -0.294556,0.2015381 -0.294556,0.6769612 0,0.6976319 0.676962,0.6976319 0.418579,0 0.888834,-0.377238 z"
         style="fill:#000003;fill-opacity:1;stroke:none;stroke-width:0.07937499;stroke-miterlimit:4;stroke-dasharray:none;stroke-dashoffset:0;stroke-opacity:1;paint-order:normal"
         id="path897"
         inkscape:connector-curvature="0" />
      <path
         d="m -23.592554,11.14574 h -0.806153 q 0,-0.925009 -0.30489,-1.4934493 -0.392741,-0.7338053 -1.240235,-0.7338053 -0.165364,0 -0.268717,0.025838 -0.0155,-0.010335 -0.03617,-0.015503 V 10.61864 q 0,0.191203 0.3514,0.5271 h -1.498617 q 0.341065,-0.346233 0.341065,-0.5271 V 6.5362019 q 0,-0.1756998 -0.180868,-0.3307291 -0.268717,-0.2273763 -0.320393,-0.2273763 l -0.02067,-0.2480469 q 0.335897,-0.051676 0.821655,-0.3462321 0.180868,-0.1085205 0.7028,-0.4289143 l -0.02584,0.4082438 q -0.170532,0.5374348 -0.170532,0.8371581 v 2.3564453 q 0,-0.056844 0.103353,-0.056844 0.320394,0 0.800985,-0.1395264 0.568441,-0.1653645 0.568441,-0.6407877 0,-0.08785 -0.0155,-0.1963704 l 1.173055,-0.020671 -0.346233,0.6149495 q -0.341064,0.3358968 -0.83199,0.5322673 1.198893,0.4289143 1.204061,2.4959723 z"
         style="fill:#000003;fill-opacity:1;stroke:none;stroke-width:0.07937499;stroke-miterlimit:4;stroke-dasharray:none;stroke-dashoffset:0;stroke-opacity:1;paint-order:normal"
         id="path899"
         inkscape:connector-curvature="0" />
      <path
         d="m -10.254867,8.0606566 q 0,1.3229167 -0.718302,2.2169194 -0.790649,0.981852 -2.139404,0.981852 -0.06201,0 -0.191203,0.01033 -0.129191,0.01034 -0.191203,0.01034 -0.614949,0 -0.966349,-0.10852 -0.418579,-0.129191 -0.862996,-0.501262 -0.81132,0.594279 -1.97404,0.594279 -1.353923,0 -2.139404,-0.981852 -0.718303,-0.8940021 -0.718303,-2.2169187 0,-0.7803141 0.532268,-1.5812988 0.558105,-0.6821289 0.63562,-0.8009847 0,-0.046509 -0.118856,-0.1601969 l -0.583944,-0.5581055 q 0.155029,-0.1705322 0.258382,-0.1705322 h 1.333252 q 0.07752,0 0.129191,0.020671 l 0.04651,0.072347 v 0.1498616 q -1.126546,1.0800374 -1.126546,3.0282389 0,1.2040608 0.516764,1.8810221 0.578776,0.7596432 1.746664,0.7596432 0.676961,0 1.157552,-0.366903 -0.780314,-1.018025 -0.780314,-2.2737623 0,-1.3022461 0.707967,-2.3822835 0,-0.051676 -0.113689,-0.1601969 l -0.594278,-0.5581055 q 0.155029,-0.1705322 0.253214,-0.1705322 h 1.049032 q 0.217041,0 0.248046,0.217041 -0.444417,1.3332519 -0.444417,3.0540771 0,1.0490315 0.361735,1.751831 0.480591,0.9353433 1.322917,0.9353433 h 0.04651 q 1.11621,0 1.741495,-0.8164875 0.470256,-0.6149495 0.470256,-1.8758545 0,-1.9482014 -1.126546,-3.0282388 V 4.8825561 l 0.04651,-0.072347 q 0.04651,-0.02067 0.129191,-0.02067 h 1.333252 q 0.103353,0 0.258383,0.1705322 l -0.583944,0.5581054 q -0.118856,0.1136882 -0.118856,0.160197 0.07235,0.1188558 0.63562,0.8009847 0.532267,0.8009846 0.532267,1.5812987 z"
         style="fill:#000003;fill-opacity:1;stroke:none;stroke-width:0.07937499;stroke-miterlimit:4;stroke-dasharray:none;stroke-dashoffset:0;stroke-opacity:1;paint-order:normal"
         id="path901"
         inkscape:connector-curvature="0" />
      <path
         d="m -6.1517589,9.5696084 q 0,0.8526616 -0.449585,1.2557376 -0.4134114,0.366902 -1.2867431,0.403076 -0.8733317,0.03617 -1.3694254,-0.315226 -0.2532145,-0.180868 -0.3979086,-0.583944 -0.129191,-0.3565674 -0.129191,-0.7131348 0,-0.3565674 0.3772379,-1.1782226 l 0.015503,-0.093018 q -0.02067,-0.1291911 -0.3410644,-0.4444173 l -0.098185,-0.289388 h 1.3797607 l -0.015503,0.361735 q -0.4237468,0.7803141 -0.4237468,1.6536458 0,0.7234709 0.2067057,0.9043379 0.2118734,0.26355 0.8991699,0.28422 l 0.020671,-0.0052 q 0.3255615,-0.124024 0.4547526,-0.294556 0.025838,-0.04134 0.08785,-0.124023 v 0.03101 l 0.00517,-0.01034 q 0.2222086,-0.4444175 0.2222086,-0.842326 0,-0.8578287 -0.5219319,-1.6329752 l -0.072347,-0.3720703 h 1.390096 l -0.08785,0.289388 q -0.3358968,0.3152262 -0.3410644,0.4444173 l 0.015503,0.082682 0.3152262,0.5167643 q 0.1446941,0.3203939 0.1446941,0.6717936 z"
         style="fill:#000003;fill-opacity:1;stroke:none;stroke-width:0.07937499;stroke-miterlimit:4;stroke-dasharray:none;stroke-dashoffset:0;stroke-opacity:1;paint-order:normal"
         id="path903"
         inkscape:connector-curvature="0" />
      <path
         d="m -2.3121987,8.2932006 q 0,0.8474934 -1.405599,1.1937255 0.3513998,-0.2842203 0.4650879,-0.4185791 0.1808675,-0.2118733 0.2067057,-0.3772379 0.036174,-0.2118734 -0.046509,-0.3875732 -0.1860351,-0.232544 -0.273885,-0.2738851 -0.1860352,-0.1085205 -0.4444173,-0.1085205 -0.6872966,0 -0.6872966,0.2325439 v 2.4081218 l 0.031006,0.222209 q 0.010335,0.07751 0.3203939,0.361735 h -1.5089518 l 0.2118733,-0.206706 q 0.098185,-0.09818 0.1188558,-0.242879 l 0.020671,-2.3409427 q 0.00517,-0.4030762 -0.4650879,-0.5529378 l 0.041341,-0.062012 q 0.041341,-0.062012 0.041341,-0.1395264 l 0.289388,-0.031006 q 0.3255616,-0.036174 0.6201172,0.1291911 l 0.08785,0.062012 q 0.4599203,-0.3203938 1.100708,-0.3203938 0.4650879,0 0.8268229,0.1912028 0.449585,0.2377115 0.4495849,0.6614584 z"
         style="fill:#000003;fill-opacity:1;stroke:none;stroke-width:0.07937499;stroke-miterlimit:4;stroke-dasharray:none;stroke-dashoffset:0;stroke-opacity:1;paint-order:normal"
         id="path905"
         inkscape:connector-curvature="0" />
      <path
         d="m 3.9871557,9.2182087 q 0,0.3513997 -0.144694,0.6717936 l -0.3152262,0.5167647 -0.015503,0.08268 q 0.00517,0.129191 0.3410644,0.444417 l 0.08785,0.289388 H 2.550551 l 0.072347,-0.37207 q 0.4702555,-0.697632 0.4702555,-1.6329753 0,-0.4185791 -0.1705322,-0.738973 -0.2170411,-0.4082438 -0.5891114,-0.4082438 -0.5012613,0 -0.8423258,0.3669027 0.160197,0.4030761 0.160197,0.7803141 0,0.3565674 -0.377238,1.1782223 l -0.015503,0.09302 q 0.00517,0.129191 0.3410644,0.444417 l 0.098185,0.289388 H 0.31812914 l 0.0155029,-0.361735 Q 0.7573788,10.081205 0.7573788,9.2078734 q 0,-0.4650879 -0.20153807,-0.7751465 -0.23254394,-0.361735 -0.67696125,-0.361735 -0.23254394,0 -0.54260252,0.1912028 -0.26871744,0.1653646 -0.26871744,0.2842204 v 1.9533689 q 0,0.155029 0.0981852,0.279053 l 0.29455565,0.19637 0.0465088,0.248047 H -2.0899925 l 0.2428792,-0.232544 q 0.1085205,-0.124023 0.1085205,-0.28422 V 8.1795124 q 0,-0.1860351 -0.3462321,-0.5219319 h 1.15238442 v 0.2842203 q 0.56844074,-0.3513997 1.15238441,-0.3513997 0.52193195,0 0.90433757,0.3307292 l 0.1601969,0.1912028 q 0.5115967,-0.521932 1.317749,-0.521932 0.6769612,0 1.0490315,0.4909261 0.3358968,0.4392497 0.3358968,1.1368815 z"
         style="fill:#000003;fill-opacity:1;stroke:none;stroke-width:0.07937499;stroke-miterlimit:4;stroke-dasharray:none;stroke-dashoffset:0;stroke-opacity:1;paint-order:normal"
         id="path907"
         inkscape:connector-curvature="0" />
      <path
         d="m 27.169203,10.995878 q -0.09302,0.170532 -0.237711,0.170532 h -4.020427 l -0.191202,-0.180867 0.428914,-0.237712 q 0.139526,-0.144694 0.1757,-0.232544 0,-0.06718 0.0155,-0.206706 l 0.0052,-0.01033 V 5.637032 q 0,-0.2222086 -0.201538,-0.4237467 L 22.714695,4.9755737 22.905898,4.7947062 h 4.020426 q 0.144694,0 0.237712,0.1705322 -0.237712,0.3824056 -0.237712,0.521932 l 0.04651,0.3513997 -0.310059,-0.098185 Q 26.182183,5.3786499 25.448378,5.2494588 l -0.258382,-0.020671 -0.26355,-0.010335 -0.428914,0.010335 -0.206706,0.020671 V 7.259672 h 2.651001 L 26.559421,7.9056273 26.037489,8.4017211 Q 25.567234,7.766101 24.600885,7.7247598 q -0.02067,0 -0.118856,-0.00517 -0.103353,-0.00517 -0.149862,0.010335 -0.04651,0.010335 -0.04134,0.041341 l 0.0052,2.9403892 0.206705,0.02067 0.428915,0.01033 0.26355,-0.01033 0.258382,-0.02067 q 0.733805,-0.129192 1.214396,-0.490927 l 0.310059,-0.09819 -0.04651,0.3514 q 0,0.139526 0.237711,0.521932 z"
         style="fill:#000003;fill-opacity:1;stroke:none;stroke-width:0.07937499;stroke-miterlimit:4;stroke-dasharray:none;stroke-dashoffset:0;stroke-opacity:1;paint-order:normal"
         id="path909"
         inkscape:connector-curvature="0" />
      <path
         d="m 31.473853,11.212919 h -1.379761 l 0.0155,-0.361735 q 0.423747,-0.780314 0.423747,-1.6536459 0,-1.1368815 -1.033529,-1.1368815 -0.232544,0 -0.542603,0.1912028 Q 28.68849,8.417224 28.68849,8.5360798 v 1.9533692 q 0,0.155029 0.09818,0.279053 l 0.294556,0.19637 0.04651,0.248047 h -1.596802 l 0.242879,-0.232544 q 0.108521,-0.124023 0.108521,-0.28422 V 8.1691771 q 0,-0.1860351 -0.346232,-0.5219319 h 1.152384 v 0.2842204 q 0.568441,-0.3513998 1.307414,-0.3513998 0.795817,0 1.302246,0.8319906 0.129191,0.3462321 0.129191,0.795817 0,0.3565674 -0.377238,1.1782226 l -0.0155,0.09302 q 0.0052,0.129191 0.341064,0.444417 z"
         style="fill:#000003;fill-opacity:1;stroke:none;stroke-width:0.07937499;stroke-miterlimit:4;stroke-dasharray:none;stroke-dashoffset:0;stroke-opacity:1;paint-order:normal"
         id="path911"
         inkscape:connector-curvature="0" />
      <path
         d="m 35.044689,11.14574 q -0.232544,0.0155 -0.43925,0.0155 -0.997355,0 -1.415934,-0.310058 -0.490926,-0.361735 -0.490926,-1.3177491 h 0.0052 L 32.708979,7.98314 H 31.851151 L 32.00618,7.6162373 q 0.103353,-0.077515 0.103353,-0.2067057 0,-0.031006 -0.0052,-0.093018 -0.0052,-0.067179 -0.0052,-0.098185 0,-0.1033528 0.04134,-0.1860351 0.201538,0.3772379 0.56844,0.434082 l 0.0052,-0.9456787 q 0,-0.3203939 -0.217041,-0.4289144 -0.139526,-0.041341 -0.201538,-0.082682 -0.09818,-0.041341 -0.320394,-0.3048909 h 1.545125 v 1.7983398 h 1.51412 l -0.26355,0.4805908 h -1.25057 v 1.6381428 q 0,0.6304521 0.206706,0.8474931 0.258382,0.273885 0.315226,0.310059 0.279053,0.180867 1.002523,0.366903 z"
         style="fill:#000003;fill-opacity:1;stroke:none;stroke-width:0.07937499;stroke-miterlimit:4;stroke-dasharray:none;stroke-dashoffset:0;stroke-opacity:1;paint-order:normal"
         id="path913"
         inkscape:connector-curvature="0" />
      <path
         d="m 39.028947,9.7401406 q -0.532267,1.4986164 -1.891357,1.4986164 -0.785482,0 -1.353923,-0.542602 -0.563273,-0.547771 -0.563273,-1.3280847 0,-0.8578287 0.506429,-1.3642577 0.511597,-0.5115967 1.369426,-0.5115967 0.65629,0 1.049031,0.3358968 0.346232,0.2997233 0.583944,0.9508463 l -2.635498,0.4702555 -0.01033,0.062012 q 0.01033,-0.051676 0.02584,-0.098185 0.0052,0.020671 0.0052,0.062012 0,0.6149495 0.3514,1.0335285 0.37207,0.449585 0.971517,0.449585 0.485758,0 0.930176,-0.294555 0.423746,-0.279053 0.661458,-0.7234707 z M 37.830054,8.4740681 Q 37.768042,8.1950154 37.50966,8.0296508 37.256446,7.8591186 36.972225,7.8952921 36.538143,7.9521361 36.321102,8.2983682 36.207414,8.561918 36.093726,8.8203002 Z"
         style="fill:#000003;fill-opacity:1;stroke:none;stroke-width:0.07937499;stroke-miterlimit:4;stroke-dasharray:none;stroke-dashoffset:0;stroke-opacity:1;paint-order:normal"
         id="path915"
         inkscape:connector-curvature="0" />
      <path
         d="m 42.853001,8.2932006 q 0,0.8474934 -1.405599,1.1937255 Q 41.798801,9.2027058 41.912489,9.068347 42.093357,8.8564737 42.119195,8.6911091 42.155365,8.4792357 42.072685,8.3035359 41.88665,8.0709919 41.7988,8.0296508 41.612765,7.9211303 41.354383,7.9211303 q -0.687296,0 -0.687296,0.2325439 v 2.4081218 l 0.03101,0.222209 q 0.01034,0.07751 0.320394,0.361735 h -1.508952 l 0.211874,-0.206706 q 0.09819,-0.09818 0.118856,-0.242879 l 0.02067,-2.3409427 q 0.0052,-0.4030762 -0.465088,-0.5529378 l 0.04134,-0.062012 q 0.04134,-0.062012 0.04134,-0.1395264 l 0.289388,-0.031006 q 0.325561,-0.036174 0.620117,0.1291911 l 0.08785,0.062012 q 0.45992,-0.3203938 1.100708,-0.3203938 0.465088,0 0.826823,0.1912028 0.449585,0.2377115 0.449585,0.6614583 z"
         style="fill:#000003;fill-opacity:1;stroke:none;stroke-width:0.07937499;stroke-miterlimit:4;stroke-dasharray:none;stroke-dashoffset:0;stroke-opacity:1;paint-order:normal"
         id="path917"
         inkscape:connector-curvature="0" />
      <path
         d="m 46.26881,11.14574 q -0.232544,0.0155 -0.439249,0.0155 -0.997356,0 -1.415935,-0.310058 Q 43.9227,10.489449 43.9227,9.5334349 h 0.0052 L 43.9331,7.983142 H 43.075271 L 43.2303,7.6162393 q 0.103353,-0.077515 0.103353,-0.2067057 0,-0.031006 -0.0052,-0.093018 -0.0052,-0.067179 -0.0052,-0.098185 0,-0.1033528 0.04134,-0.1860351 0.201538,0.3772379 0.568441,0.434082 l 0.0052,-0.9456787 q 0,-0.3203939 -0.217041,-0.4289144 -0.139526,-0.041341 -0.201538,-0.082682 -0.09819,-0.041341 -0.320394,-0.3048909 h 1.545125 v 1.7983398 h 1.51412 l -0.26355,0.4805908 h -1.25057 v 1.6381428 q 0,0.6304521 0.206706,0.8474931 0.258382,0.273885 0.315226,0.310059 0.279053,0.180867 1.002523,0.366903 z"
         style="fill:#000003;fill-opacity:1;stroke:none;stroke-width:0.07937499;stroke-miterlimit:4;stroke-dasharray:none;stroke-dashoffset:0;stroke-opacity:1;paint-order:normal"
         id="path919"
         inkscape:connector-curvature="0" />
      <path
         d="m 50.201392,11.140572 h -1.054199 q -0.129192,0 -0.217041,-0.149862 -0.07235,-0.124023 -0.05685,-0.1757 0.0052,-0.02584 0.02584,-0.08268 -0.609782,0.454753 -1.105876,0.454753 -0.573608,0 -0.935343,-0.258382 -0.413412,-0.289388 -0.413412,-0.842326 0,-1.0231936 0.919841,-1.2712405 0.821655,-0.2222086 1.054199,-0.3255615 0.335897,-0.1498616 0.485758,-0.4289144 -0.428914,-0.2532145 -0.98702,-0.2532145 -0.465087,0 -1.18339,0.1912028 0.63562,-0.5891113 1.62264,-0.5891113 0.485759,0 1.007691,0.1756999 0.346232,0.1653646 0.346232,0.5581054 V 10.62381 q 0,0.02584 0.05168,0.09302 0.124024,0.341065 0.43925,0.423747 z M 48.904313,10.169055 V 8.5360798 q -0.242879,0.2532145 -0.558105,0.361735 -0.63562,0.2222087 -0.713135,0.2738851 -0.294556,0.2015381 -0.294556,0.6769612 0,0.6976319 0.676962,0.6976319 0.418579,0 0.888834,-0.377238 z"
         style="fill:#000003;fill-opacity:1;stroke:none;stroke-width:0.07937499;stroke-miterlimit:4;stroke-dasharray:none;stroke-dashoffset:0;stroke-opacity:1;paint-order:normal"
         id="path921"
         inkscape:connector-curvature="0" />
      <path
         d="m 51.84987,6.520699 q 0,0.361735 -0.521932,0.4134115 -0.490926,0 -0.542602,-0.4030762 0,-0.3875732 0.527099,-0.4082438 0.475423,-0.020671 0.537435,0.3979085 z m 0.37207,4.625041 h -1.46761 l 0.237711,-0.232544 q 0.09819,-0.124024 0.09819,-0.284221 V 8.4068887 q 0,-0.3203938 -0.217041,-0.4289143 -0.139526,-0.041341 -0.201538,-0.082682 -0.09819,-0.041341 -0.320393,-0.304891 h 1.545125 v 3.0385736 q 0,0.124024 0.03101,0.191203 0.0155,0.06201 0.294555,0.325562 z"
         style="fill:#000003;fill-opacity:1;stroke:none;stroke-width:0.07937499;stroke-miterlimit:4;stroke-dasharray:none;stroke-dashoffset:0;stroke-opacity:1;paint-order:normal"
         id="path923"
         inkscape:connector-curvature="0" />
      <path
         d="m 56.526587,11.212919 h -1.379761 l 0.0155,-0.361735 q 0.423747,-0.780314 0.423747,-1.6536459 0,-1.1368815 -1.033529,-1.1368815 -0.232544,0 -0.542602,0.1912028 -0.268718,0.1653646 -0.268718,0.2842204 v 1.9533692 q 0,0.155029 0.09819,0.279053 l 0.294555,0.19637 0.04651,0.248047 h -1.596802 l 0.24288,-0.232544 q 0.10852,-0.124023 0.10852,-0.28422 V 8.1691771 q 0,-0.1860351 -0.346232,-0.5219319 h 1.152384 v 0.2842204 q 0.568441,-0.3513998 1.307414,-0.3513998 0.795817,0 1.302246,0.8319906 0.129191,0.3462321 0.129191,0.795817 0,0.3565674 -0.377238,1.1782226 l -0.0155,0.09302 q 0.0052,0.129191 0.341065,0.444417 z"
         style="fill:#000003;fill-opacity:1;stroke:none;stroke-width:0.07937499;stroke-miterlimit:4;stroke-dasharray:none;stroke-dashoffset:0;stroke-opacity:1;paint-order:normal"
         id="path925"
         inkscape:connector-curvature="0" />
      <path
         d="m 62.980968,9.2182087 q 0,0.3513997 -0.144694,0.6717936 l -0.315226,0.5167647 -0.0155,0.08268 q 0.0052,0.129191 0.341065,0.444417 l 0.08785,0.289388 h -1.390095 l 0.07235,-0.37207 q 0.470255,-0.697632 0.470255,-1.6329753 0,-0.4185791 -0.170532,-0.738973 Q 61.6994,8.0709899 61.32733,8.0709899 q -0.501262,0 -0.842326,0.3669027 0.160197,0.4030761 0.160197,0.7803141 0,0.3565674 -0.377238,1.1782223 l -0.0155,0.09302 q 0.0052,0.129191 0.341064,0.444417 l 0.09819,0.289388 h -1.37976 l 0.0155,-0.361735 q 0.423746,-0.780314 0.423746,-1.6536456 0,-0.4650879 -0.201538,-0.7751465 -0.232544,-0.361735 -0.676961,-0.361735 -0.232544,0 -0.542602,0.1912028 -0.268718,0.1653646 -0.268718,0.2842204 v 1.9533689 q 0,0.155029 0.09819,0.279053 l 0.294556,0.19637 0.04651,0.248047 H 56.90382 L 57.146699,10.99071 Q 57.25522,10.866687 57.25522,10.70649 V 8.1795124 q 0,-0.1860351 -0.346232,-0.5219319 h 1.152384 v 0.2842203 q 0.568441,-0.3513997 1.152384,-0.3513997 0.521932,0 0.904338,0.3307292 l 0.160197,0.1912028 q 0.511597,-0.521932 1.317749,-0.521932 0.676961,0 1.049031,0.4909261 0.335897,0.4392497 0.335897,1.1368815 z"
         style="fill:#000003;fill-opacity:1;stroke:none;stroke-width:0.07937499;stroke-miterlimit:4;stroke-dasharray:none;stroke-dashoffset:0;stroke-opacity:1;paint-order:normal"
         id="path927"
         inkscape:connector-curvature="0" />
      <path
         d="m 67.161592,9.7401406 q -0.532268,1.4986164 -1.891358,1.4986164 -0.785481,0 -1.353922,-0.542602 -0.563273,-0.547771 -0.563273,-1.3280847 0,-0.8578287 0.506429,-1.3642577 0.511596,-0.5115967 1.369425,-0.5115967 0.656291,0 1.049032,0.3358968 0.346232,0.2997233 0.583943,0.9508463 l -2.635498,0.4702555 -0.01033,0.062012 q 0.01033,-0.051676 0.02584,-0.098185 0.0052,0.020671 0.0052,0.062012 0,0.6149495 0.3514,1.0335285 0.37207,0.449585 0.971517,0.449585 0.485758,0 0.930175,-0.294555 0.423747,-0.279053 0.661459,-0.7234707 z M 65.962699,8.4740681 Q 65.900687,8.1950154 65.642305,8.0296508 65.38909,7.8591186 65.10487,7.8952921 64.670788,7.9521361 64.453747,8.2983682 64.340059,8.561918 64.22637,8.8203002 Z"
         style="fill:#000003;fill-opacity:1;stroke:none;stroke-width:0.07937499;stroke-miterlimit:4;stroke-dasharray:none;stroke-dashoffset:0;stroke-opacity:1;paint-order:normal"
         id="path929"
         inkscape:connector-curvature="0" />
      <path
         d="m 71.471411,11.212919 h -1.37976 l 0.0155,-0.361735 Q 70.5309,10.07087 70.5309,9.1975381 q 0,-1.1368815 -1.033528,-1.1368815 -0.232544,0 -0.542603,0.1912028 -0.268717,0.1653646 -0.268717,0.2842204 v 1.9533692 q 0,0.155029 0.09819,0.279053 l 0.294556,0.19637 0.04651,0.248047 H 67.5285 l 0.242879,-0.232544 q 0.10852,-0.124023 0.10852,-0.28422 V 8.1691771 q 0,-0.1860351 -0.346232,-0.5219319 h 1.152385 v 0.2842204 q 0.56844,-0.3513998 1.307413,-0.3513998 0.795817,0 1.302246,0.8319906 0.129191,0.3462321 0.129191,0.795817 0,0.3565674 -0.377237,1.1782226 l -0.0155,0.09302 q 0.0052,0.129191 0.341064,0.444417 z"
         style="fill:#000003;fill-opacity:1;stroke:none;stroke-width:0.07937499;stroke-miterlimit:4;stroke-dasharray:none;stroke-dashoffset:0;stroke-opacity:1;paint-order:normal"
         id="path931"
         inkscape:connector-curvature="0" />
      <path
         d="m 75.042248,11.14574 q -0.232544,0.0155 -0.43925,0.0155 -0.997355,0 -1.415934,-0.310058 -0.490926,-0.361735 -0.490926,-1.3177491 h 0.0052 l 0.0052,-1.5502929 h -0.857829 l 0.15503,-0.3669027 q 0.103352,-0.077515 0.103352,-0.2067057 0,-0.031006 -0.0052,-0.093018 -0.0052,-0.067179 -0.0052,-0.098185 0,-0.1033528 0.04134,-0.1860351 0.201538,0.3772379 0.568441,0.434082 l 0.0052,-0.9456787 q 0,-0.3203939 -0.217041,-0.4289144 -0.139527,-0.041341 -0.201538,-0.082682 -0.09819,-0.041341 -0.320394,-0.3048909 h 1.545125 v 1.7983398 h 1.514119 l -0.26358,0.4805927 h -1.25057 v 1.6381428 q 0,0.6304522 0.206706,0.8474932 0.258382,0.273885 0.315226,0.310059 0.279053,0.180867 1.002523,0.366903 z"
         style="fill:#000003;fill-opacity:1;stroke:none;stroke-width:0.07937499;stroke-miterlimit:4;stroke-dasharray:none;stroke-dashoffset:0;stroke-opacity:1;paint-order:normal"
         id="path933"
         inkscape:connector-curvature="0" />
    </g>
  </g>
</svg>
