<?xml version="1.0" encoding="UTF-8" standalone="no"?>
<!-- Created with Inkscape (http://www.inkscape.org/) -->

<svg
   xmlns:dc="http://purl.org/dc/elements/1.1/"
   xmlns:cc="http://creativecommons.org/ns#"
   xmlns:rdf="http://www.w3.org/1999/02/22-rdf-syntax-ns#"
   xmlns:svg="http://www.w3.org/2000/svg"
   xmlns="http://www.w3.org/2000/svg"
   xmlns:xlink="http://www.w3.org/1999/xlink"
   xmlns:sodipodi="http://sodipodi.sourceforge.net/DTD/sodipodi-0.dtd"
   xmlns:inkscape="http://www.inkscape.org/namespaces/inkscape"
   width="670"
   height="430"
   viewBox="0 0 177.27083 113.77083"
   version="1.1"
   id="svg3723"
   inkscape:version="0.92.3 (2405546, 2018-03-11)"
   sodipodi:docname="dragon_topwrap.svg">
  <defs
     id="defs3717">
    <linearGradient
       inkscape:collect="always"
       id="linearGradient5090">
      <stop
         style="stop-color:#ef3a0c;stop-opacity:1"
         offset="0"
         id="stop5086" />
      <stop
         style="stop-color:#ef3a0c;stop-opacity:1"
         offset="1"
         id="stop5088" />
    </linearGradient>
    <marker
       inkscape:stockid="Arrow2Lstart"
       orient="auto"
       refY="0.0"
       refX="0.0"
       id="Arrow2Lstart"
       style="overflow:visible"
       inkscape:isstock="true">
      <path
         id="path864"
         style="fill-rule:evenodd;stroke-width:0.625;stroke-linejoin:round;stroke:#ef3a0c;stroke-opacity:1;fill:#ef3a0c;fill-opacity:1"
         d="M 8.7185878,4.0337352 L -2.2072895,0.016013256 L 8.7185884,-4.0017078 C 6.9730900,-1.6296469 6.9831476,1.6157441 8.7185878,4.0337352 z "
         transform="scale(1.1) translate(1,0)" />
    </marker>
    <marker
       inkscape:stockid="DotL"
       orient="auto"
       refY="0.0"
       refX="0.0"
       id="DotL"
       style="overflow:visible"
       inkscape:isstock="true">
      <path
         id="path1108"
         d="M -2.5,-1.0 C -2.5,1.7600000 -4.7400000,4.0 -7.5,4.0 C -10.260000,4.0 -12.5,1.7600000 -12.5,-1.0 C -12.5,-3.7600000 -10.260000,-6.0 -7.5,-6.0 C -4.7400000,-6.0 -2.5,-3.7600000 -2.5,-1.0 z "
         style="fill-rule:evenodd;stroke:#ef3a0c;stroke-width:1pt;stroke-opacity:1;fill:#ef3a0c;fill-opacity:1"
         transform="scale(0.8) translate(7.4, 1)" />
    </marker>
    <linearGradient
       inkscape:collect="always"
       id="linearGradient885">
      <stop
         style="stop-color:#000000;stop-opacity:1"
         offset="0"
         id="stop881" />
      <stop
         style="stop-color:#9b1a0a;stop-opacity:1"
         offset="1"
         id="stop883" />
    </linearGradient>
    <linearGradient
       inkscape:collect="always"
       xlink:href="#linearGradient885"
       id="linearGradient887"
       x1="50.270832"
       y1="315.95929"
       x2="50.270832"
       y2="246.90991"
       gradientUnits="userSpaceOnUse"
       gradientTransform="matrix(1,0,0,1.6963425,74.083332,-510.33668)" />
    <linearGradient
       inkscape:collect="always"
       xlink:href="#linearGradient5090"
       id="linearGradient4606"
       gradientUnits="userSpaceOnUse"
       x1="10.23508"
       y1="-69.911133"
       x2="11.02883"
       y2="-87.98513" />
    <filter
       inkscape:collect="always"
       style="color-interpolation-filters:sRGB"
       id="filter6664"
       x="-0.077968624"
       width="1.1559372"
       y="-0.14253953"
       height="1.2850791">
      <feGaussianBlur
         inkscape:collect="always"
         stdDeviation="5.7577373"
         id="feGaussianBlur6666" />
    </filter>
    <filter
       inkscape:collect="always"
       style="color-interpolation-filters:sRGB"
       id="filter6688"
       x="-0.016981332"
       width="1.0339627"
       y="-0.031344614"
       height="1.0626892">
      <feGaussianBlur
         inkscape:collect="always"
         stdDeviation="1.2582584"
         id="feGaussianBlur6690" />
    </filter>
  </defs>
  <sodipodi:namedview
     id="base"
     pagecolor="#ffffff"
     bordercolor="#666666"
     borderopacity="1.0"
     inkscape:pageopacity="0.0"
     inkscape:pageshadow="2"
     inkscape:zoom="2.0000001"
     inkscape:cx="153.08248"
     inkscape:cy="286.57327"
     inkscape:document-units="px"
     inkscape:current-layer="layer3"
     showgrid="true"
     units="px"
     showborder="true"
     inkscape:showpageshadow="false"
     inkscape:window-width="1718"
     inkscape:window-height="854"
     inkscape:window-x="532"
     inkscape:window-y="883"
     inkscape:window-maximized="0"
     inkscape:snap-grids="false"
     showguides="true"
     inkscape:guide-bbox="true"
     inkscape:snap-to-guides="false">
    <inkscape:grid
       type="xygrid"
       id="grid3725"
       empspacing="10"
       dotted="false"
       color="#ff3fff"
       opacity="0.1254902" />
  </sodipodi:namedview>
  <metadata
     id="metadata3720">
    <rdf:RDF>
      <cc:Work
         rdf:about="">
        <dc:format>image/svg+xml</dc:format>
        <dc:type
           rdf:resource="http://purl.org/dc/dcmitype/StillImage" />
        <dc:title />
        <cc:license
           rdf:resource="http://creativecommons.org/publicdomain/zero/1.0/" />
        <dc:creator>
          <cc:Agent>
            <dc:title>@Zaphodious</dc:title>
          </cc:Agent>
        </dc:creator>
      </cc:Work>
      <cc:License
         rdf:about="http://creativecommons.org/publicdomain/zero/1.0/">
        <cc:permits
           rdf:resource="http://creativecommons.org/ns#Reproduction" />
        <cc:permits
           rdf:resource="http://creativecommons.org/ns#Distribution" />
        <cc:permits
           rdf:resource="http://creativecommons.org/ns#DerivativeWorks" />
      </cc:License>
    </rdf:RDF>
  </metadata>
  <g
     inkscape:groupmode="layer"
     id="layer4"
     inkscape:label="Whitespace"
     transform="translate(0,87.312503)"
     style="display:inline">
    <rect
       y="-87.3125"
       x="-3.918818e-006"
       height="114.00128"
       width="177.27083"
       id="rect836"
       style="fill:url(#linearGradient887);fill-opacity:1;stroke:none;stroke-width:0.34357908;stroke-miterlimit:4;stroke-dasharray:none;stroke-opacity:1" />
  </g>
  <g
     inkscape:groupmode="layer"
     id="layer3"
     inkscape:label="Flame"
     transform="translate(0,87.312503)"
     style="display:inline">
    <path
       sodipodi:nodetypes="czssssszc"
       inkscape:connector-curvature="0"
       id="path4604"
       d="m 160.04965,-68.91717 c -17.07267,-1.653133 -31.44563,-1.826776 -41.76438,-2.620526 -10.31875,-0.79375 -23.639653,2.814119 -28.949178,-5.1947 -4.181833,-6.307823 36.725278,-6.64944 33.518318,-13.643861 -3.70237,-8.074899 -56.980797,-6.246222 -75.870346,-5.975802 -18.889549,0.270421 -65.986722,-12.739121 -64.112505,10.024126 0.937109,11.381624 14.0639911,74.652505 16.38755073,82.5512382 C 1.5826694,4.1220388 4.3370112,-46.183124 11.284012,-48.80314 c 6.947,-2.620017 123.003368,-19.264382 148.765638,-20.11403 z"
       style="opacity:1;fill:url(#linearGradient4606);fill-opacity:1;stroke:none;stroke-width:0.26458332px;stroke-linecap:butt;stroke-linejoin:miter;stroke-opacity:1;filter:url(#filter6664)" />
    <path
       style="opacity:1;fill:#fb0000;fill-opacity:0.45226129;stroke:none;stroke-width:0.26458332px;stroke-linecap:butt;stroke-linejoin:miter;stroke-opacity:1;filter:url(#filter6688)"
       d="m 160.04965,-68.91717 c -17.07267,-1.653133 -32.52085,-0.786539 -42.8396,-1.580289 -10.31875,-0.79375 -22.564433,1.773882 -27.873958,-6.234937 -4.181833,-6.307823 0.474995,-10.637016 -2.731965,-17.631437 -3.70237,-8.074897 -20.730514,-2.258646 -39.620063,-1.988226 -18.889549,0.270421 -64.143487,-10.138531 -62.26927,12.624719 0.937109,11.381624 0.883849,90.5177506 2.900523,85.7497088 C -2.6868219,-20.906374 -28.892623,-33.936863 10.981604,-47.818652 65.971146,-66.962677 134.28738,-68.067522 160.04965,-68.91717 Z"
       id="path6480"
       inkscape:connector-curvature="0"
       sodipodi:nodetypes="czssssssc"
       transform="matrix(0.8612576,0,0,0.76304708,9.9108451,-16.7758)" />
  </g>
  <g
     inkscape:label="Dragon"
     inkscape:groupmode="layer"
     id="layer1"
     transform="translate(0,-183.22916)"
     style="display:inline">
    <path
       style="fill:#000000;stroke:none;stroke-width:0.26458332px;stroke-linecap:butt;stroke-linejoin:miter;stroke-opacity:1"
       d="M -3.8960604e-6,297.23044 C 21.166662,297.23044 61.452727,297.08319 86.491877,297.08319 c 45.799783,-0.0832 56.383113,-0.0832 90.802203,0.23719 3.59485,-31.92997 30.89935,-113.34321 -13.98095,-101.51941 -0.25024,0.5361 -3.41518,0.95223 -4.466,1.24523 -1.57273,0.4049 -2.67876,0.61411 -3.30797,0.90178 0.63455,-0.43751 2.33784,-1.03214 3.70041,-3.06701 1.95998,-2.92707 -8.68284,-4.72008 -10.53095,-3.28528 2.87211,-0.26531 10.47907,2.59141 6.36119,3.18827 -1.90856,0.27663 -0.97319,1.2842 -1.27912,1.24051 -0.96113,-0.13723 -1.42511,-0.45484 -1.95289,-0.49328 -0.52776,-0.0384 -3.00797,-1.04832 -3.51651,-1.35064 -0.50855,-0.30231 0.36924,1.02522 -3.58402,1.86145 -0.36607,0.0774 -6.43045,1.45135 -6.97116,0.055 -0.13377,0.24311 -0.20558,0.47007 -0.22968,0.68494 -0.0724,0.64462 0.25628,1.32772 0.67959,1.71917 0.11917,0.42691 0.38646,0.69839 0.57573,0.9729 -0.0409,-0.51609 0.23837,-0.76558 0.47153,-1.03369 0.10889,-2e-5 0.20753,-0.001 0.32777,10e-4 0.10982,0.40775 -0.014,0.68295 0.38066,1.21543 -0.053,-0.54301 0.1817,-0.92174 0.42391,-1.18904 0.10913,0.005 0.22279,0.0125 0.33601,0.0189 -0.009,0.34121 -0.10042,0.6558 0.15527,1.15792 0.0345,-0.49187 0.28744,-0.87702 0.54488,-1.11217 0.11742,0.009 0.2316,0.0178 0.35073,0.0278 0.003,0.3655 -0.11542,0.68716 0.15536,1.21892 0.0364,-0.51925 0.31678,-0.91899 0.58835,-1.14901 0.15786,0.0162 0.31147,0.0324 0.46816,0.0505 -0.0335,0.39149 -0.22526,0.69542 -0.0174,1.29079 0.13196,-0.63402 0.61341,-1.03911 0.94806,-1.17112 0.12525,0.0184 0.2461,0.0377 0.36703,0.0573 0.009,0.46042 -0.25003,0.7634 -0.0195,1.42369 0.15267,-0.73355 0.77418,-1.16334 1.0937,-1.21484 8e-4,-1.2e-4 8e-4,9e-5 0.002,-6e-5 0.0143,0.003 0.0295,0.006 0.0437,0.01 -0.012,0.49498 -0.33162,0.76612 -0.15623,1.47287 0.2199,-0.71628 0.87807,-1.08695 1.20099,-1.10866 0.009,-5.3e-4 0.0119,-0.002 0.0185,-0.003 0.38126,0.21695 0.33288,0.44496 0.47396,0.89862 0.18888,0.60742 0.68585,0.77516 0.15126,1.6998 -0.24278,0.37262 -0.59538,0.71028 -1.02216,1.0113 -0.30524,-0.11793 -0.6391,-0.34231 -0.86186,-0.71343 0.003,0.51711 0.19298,0.76388 0.3515,1.03477 -0.13201,0.075 -0.27092,0.14486 -0.41194,0.21374 -0.31337,-0.13683 -0.66279,-0.40313 -0.86694,-0.82547 -0.0456,0.53235 0.13454,0.79489 0.26976,1.09022 -0.1297,0.0517 -0.26106,0.10121 -0.3951,0.14816 -0.34039,-0.13236 -0.77356,-0.45848 -0.97222,-0.99169 -0.10702,0.59119 0.10098,0.87098 0.20266,1.22851 -0.0758,0.0204 -0.14994,0.0435 -0.22629,0.0624 -0.32636,-0.16474 -0.75641,-0.57686 -0.86897,-1.18832 -0.23021,0.62442 -0.0132,0.9397 -0.006,1.3675 -0.0792,0.0134 -0.15821,0.0262 -0.23729,0.0379 -0.28603,-0.22759 -0.62366,-0.7194 -0.60893,-1.34162 -0.3536,0.56538 -0.20449,0.91851 -0.28596,1.33989 -0.2603,-0.25369 -0.52624,-0.70537 -0.51314,-1.25891 -0.33621,0.53757 -0.21734,0.88324 -0.2747,1.27807 -0.2712,-0.24576 -0.56292,-0.71377 -0.54921,-1.29309 -0.35571,0.56877 -0.20302,0.92295 -0.28781,1.3477 -0.002,-1.9e-4 -0.004,-8e-4 -0.005,-8e-4 -0.30002,-0.17837 -0.70132,-0.59778 -0.68476,-1.29719 -0.35593,0.51896 -0.34237,0.91807 -0.44142,1.05718 -0.98768,0.57744 0.2393,1.57885 -0.009,2.51623 1.8288,-0.90412 5.67339,-0.3982 7.13401,-1.16772 1.89486,-0.99829 3.8665,-0.864 5.58894,-1.01029 1.72244,-0.14628 1.06158,-0.67805 2.98924,-0.50962 1.92766,0.16845 8.92442,0.8353 9.46052,1.08554 5.40996,4.41504 -35.20941,11.90573 -49.35588,15.49531 -16.009552,4.06233 -22.443933,-3.14699 -22.176124,2.16486 0.103163,-2.61925 5.015844,0.20542 3.311308,1.14382 -1.704533,0.93839 -5.068433,2.14202 -6.644884,2.73525 -19.084586,7.18171 -88.70291289606,49.21043 -88.70291389606,70.43471 z"
       id="path2118"
       inkscape:connector-curvature="0"
       sodipodi:nodetypes="ccccccccsccccccccccccccccccccccccccccccccccccccccccccccccccccccscccscssc" />
  </g>
  <g
     inkscape:groupmode="layer"
     id="layer2"
     inkscape:label="Text"
     transform="translate(0,87.312503)"
     style="display:none">
    <g
       aria-label="Blak Wurm      Entertainment"
       style="font-style:normal;font-variant:normal;font-weight:normal;font-stretch:normal;font-size:10.58333302px;line-height:1.25;font-family:'Dumbledor 1';-inkscape-font-specification:'Dumbledor 1, ';letter-spacing:0px;word-spacing:0px;display:inline;fill:#000003;fill-opacity:1;stroke:none;stroke-width:0.07937499;stroke-miterlimit:4;stroke-dasharray:none;stroke-dashoffset:0;stroke-opacity:1;paint-order:normal"
       id="text891"
       transform="translate(74.083331,-44.979168)">
      <path
         d="m -34.237899,8.8874795 q 0,1.3642575 -1.576131,1.9326985 -0.687296,0.248047 -1.607137,0.310059 l 0.01033,0.0155 h -0.248046 q -0.07751,0 -0.237712,0.0052 -0.160197,0.0052 -0.237712,0.0052 h -0.237711 l -0.180868,-0.01033 h -0.439249 q 0.26355,-0.268718 0.294555,-0.408244 l 0.04134,-0.475423 V 6.0607788 q 0,-0.3875733 -0.227377,-0.6717936 -0.268717,-0.3307292 -0.361735,-0.3307292 l -0.01033,-0.2480469 0.160197,-0.010335 q 0.702799,-0.046509 1.07487,0.3100585 l 0.10852,0.1756999 q 0.775147,-0.6201172 1.674316,-0.6201172 0.620118,0 1.038697,0.2997233 0.475423,0.3358968 0.475423,0.9353434 0,0.6976319 -0.542603,1.2712402 1.028361,0.5581055 1.028361,1.7156575 z m -1.591634,-2.9042154 q 0,-0.7079671 -0.800984,-0.7079671 -0.341065,0 -0.640788,0.1188558 -0.392741,0.1550293 -0.434082,0.4289144 l 0.0052,0.067179 v 0.8423259 q 0.423747,0.00517 1.307414,0.08785 0.07751,0.00517 0.320394,0.056844 0.242879,-0.377238 0.242879,-0.8940023 z m 0.485759,2.924886 q 0,-0.8526611 -0.764811,-1.3539225 -0.625285,-0.4082438 -1.317749,-0.4082438 -0.268718,0 -0.273886,0.046509 v 3.3899732 q 0,0.08268 0.02584,0.160197 0.02067,0.0052 0.04651,0 0.124024,-0.02067 0.211874,-0.02067 0.72347,0 1.307414,-0.382406 0.764811,-0.5012609 0.764811,-1.4314367 z"
         style="fill:#000003;fill-opacity:1;stroke:none;stroke-width:0.07937499;stroke-miterlimit:4;stroke-dasharray:none;stroke-dashoffset:0;stroke-opacity:1;paint-order:normal"
         id="path893"
         inkscape:connector-curvature="0" />
      <path
         d="m -31.855615,11.150907 h -1.550293 q 0.211873,-0.279053 0.268717,-0.45992 l 0.03101,-0.423747 V 6.1434611 q 0,-0.3824056 -0.377238,-0.3824056 -0.134358,0 -0.377238,0.056844 0.237712,-0.3772379 0.759644,-0.5736083 0.248047,-0.093018 0.940511,-0.2377116 V 10.26724 q 0,0.361735 0.03617,0.480591 0.04134,0.139526 0.268717,0.403076 z"
         style="fill:#000003;fill-opacity:1;stroke:none;stroke-width:0.07937499;stroke-miterlimit:4;stroke-dasharray:none;stroke-dashoffset:0;stroke-opacity:1;paint-order:normal"
         id="path895"
         inkscape:connector-curvature="0" />
      <path
         d="m -27.726668,11.140572 h -1.0542 q -0.129191,0 -0.217041,-0.149862 -0.07235,-0.124023 -0.05684,-0.1757 0.0052,-0.02584 0.02584,-0.08268 -0.609782,0.454753 -1.105876,0.454753 -0.573608,0 -0.935343,-0.258382 -0.413412,-0.289388 -0.413412,-0.842326 0,-1.0231936 0.919841,-1.2712405 0.821655,-0.2222086 1.054199,-0.3255615 0.335897,-0.1498616 0.485758,-0.4289144 -0.428914,-0.2532145 -0.98702,-0.2532145 -0.465087,0 -1.18339,0.1912028 0.63562,-0.5891113 1.62264,-0.5891113 0.485759,0 1.007691,0.1756999 0.346232,0.1653646 0.346232,0.5581054 V 10.62381 q 0,0.02584 0.05168,0.09302 0.124023,0.341065 0.43925,0.423747 z m -1.297079,-0.971517 V 8.5360798 q -0.242879,0.2532145 -0.558105,0.361735 -0.63562,0.2222087 -0.713135,0.2738851 -0.294556,0.2015381 -0.294556,0.6769612 0,0.6976319 0.676962,0.6976319 0.418579,0 0.888834,-0.377238 z"
         style="fill:#000003;fill-opacity:1;stroke:none;stroke-width:0.07937499;stroke-miterlimit:4;stroke-dasharray:none;stroke-dashoffset:0;stroke-opacity:1;paint-order:normal"
         id="path897"
         inkscape:connector-curvature="0" />
      <path
         d="m -23.592554,11.14574 h -0.806153 q 0,-0.925009 -0.30489,-1.4934493 -0.392741,-0.7338053 -1.240235,-0.7338053 -0.165364,0 -0.268717,0.025838 -0.0155,-0.010335 -0.03617,-0.015503 V 10.61864 q 0,0.191203 0.3514,0.5271 h -1.498617 q 0.341065,-0.346233 0.341065,-0.5271 V 6.5362019 q 0,-0.1756998 -0.180868,-0.3307291 -0.268717,-0.2273763 -0.320393,-0.2273763 l -0.02067,-0.2480469 q 0.335897,-0.051676 0.821655,-0.3462321 0.180868,-0.1085205 0.7028,-0.4289143 l -0.02584,0.4082438 q -0.170532,0.5374348 -0.170532,0.8371581 v 2.3564453 q 0,-0.056844 0.103353,-0.056844 0.320394,0 0.800985,-0.1395264 0.568441,-0.1653645 0.568441,-0.6407877 0,-0.08785 -0.0155,-0.1963704 l 1.173055,-0.020671 -0.346233,0.6149495 q -0.341064,0.3358968 -0.83199,0.5322673 1.198893,0.4289143 1.204061,2.4959723 z"
         style="fill:#000003;fill-opacity:1;stroke:none;stroke-width:0.07937499;stroke-miterlimit:4;stroke-dasharray:none;stroke-dashoffset:0;stroke-opacity:1;paint-order:normal"
         id="path899"
         inkscape:connector-curvature="0" />
      <path
         d="m -10.254867,8.0606566 q 0,1.3229167 -0.718302,2.2169194 -0.790649,0.981852 -2.139404,0.981852 -0.06201,0 -0.191203,0.01033 -0.129191,0.01034 -0.191203,0.01034 -0.614949,0 -0.966349,-0.10852 -0.418579,-0.129191 -0.862996,-0.501262 -0.81132,0.594279 -1.97404,0.594279 -1.353923,0 -2.139404,-0.981852 -0.718303,-0.8940021 -0.718303,-2.2169187 0,-0.7803141 0.532268,-1.5812988 0.558105,-0.6821289 0.63562,-0.8009847 0,-0.046509 -0.118856,-0.1601969 l -0.583944,-0.5581055 q 0.155029,-0.1705322 0.258382,-0.1705322 h 1.333252 q 0.07752,0 0.129191,0.020671 l 0.04651,0.072347 v 0.1498616 q -1.126546,1.0800374 -1.126546,3.0282389 0,1.2040608 0.516764,1.8810221 0.578776,0.7596432 1.746664,0.7596432 0.676961,0 1.157552,-0.366903 -0.780314,-1.018025 -0.780314,-2.2737623 0,-1.3022461 0.707967,-2.3822835 0,-0.051676 -0.113689,-0.1601969 l -0.594278,-0.5581055 q 0.155029,-0.1705322 0.253214,-0.1705322 h 1.049032 q 0.217041,0 0.248046,0.217041 -0.444417,1.3332519 -0.444417,3.0540771 0,1.0490315 0.361735,1.751831 0.480591,0.9353433 1.322917,0.9353433 h 0.04651 q 1.11621,0 1.741495,-0.8164875 0.470256,-0.6149495 0.470256,-1.8758545 0,-1.9482014 -1.126546,-3.0282388 V 4.8825561 l 0.04651,-0.072347 q 0.04651,-0.02067 0.129191,-0.02067 h 1.333252 q 0.103353,0 0.258383,0.1705322 l -0.583944,0.5581054 q -0.118856,0.1136882 -0.118856,0.160197 0.07235,0.1188558 0.63562,0.8009847 0.532267,0.8009846 0.532267,1.5812987 z"
         style="fill:#000003;fill-opacity:1;stroke:none;stroke-width:0.07937499;stroke-miterlimit:4;stroke-dasharray:none;stroke-dashoffset:0;stroke-opacity:1;paint-order:normal"
         id="path901"
         inkscape:connector-curvature="0" />
      <path
         d="m -6.1517589,9.5696084 q 0,0.8526616 -0.449585,1.2557376 -0.4134114,0.366902 -1.2867431,0.403076 -0.8733317,0.03617 -1.3694254,-0.315226 -0.2532145,-0.180868 -0.3979086,-0.583944 -0.129191,-0.3565674 -0.129191,-0.7131348 0,-0.3565674 0.3772379,-1.1782226 l 0.015503,-0.093018 q -0.02067,-0.1291911 -0.3410644,-0.4444173 l -0.098185,-0.289388 h 1.3797607 l -0.015503,0.361735 q -0.4237468,0.7803141 -0.4237468,1.6536458 0,0.7234709 0.2067057,0.9043379 0.2118734,0.26355 0.8991699,0.28422 l 0.020671,-0.0052 q 0.3255615,-0.124024 0.4547526,-0.294556 0.025838,-0.04134 0.08785,-0.124023 v 0.03101 l 0.00517,-0.01034 q 0.2222086,-0.4444175 0.2222086,-0.842326 0,-0.8578287 -0.5219319,-1.6329752 l -0.072347,-0.3720703 h 1.390096 l -0.08785,0.289388 q -0.3358968,0.3152262 -0.3410644,0.4444173 l 0.015503,0.082682 0.3152262,0.5167643 q 0.1446941,0.3203939 0.1446941,0.6717936 z"
         style="fill:#000003;fill-opacity:1;stroke:none;stroke-width:0.07937499;stroke-miterlimit:4;stroke-dasharray:none;stroke-dashoffset:0;stroke-opacity:1;paint-order:normal"
         id="path903"
         inkscape:connector-curvature="0" />
      <path
         d="m -2.3121987,8.2932006 q 0,0.8474934 -1.405599,1.1937255 0.3513998,-0.2842203 0.4650879,-0.4185791 0.1808675,-0.2118733 0.2067057,-0.3772379 0.036174,-0.2118734 -0.046509,-0.3875732 -0.1860351,-0.232544 -0.273885,-0.2738851 -0.1860352,-0.1085205 -0.4444173,-0.1085205 -0.6872966,0 -0.6872966,0.2325439 v 2.4081218 l 0.031006,0.222209 q 0.010335,0.07751 0.3203939,0.361735 h -1.5089518 l 0.2118733,-0.206706 q 0.098185,-0.09818 0.1188558,-0.242879 l 0.020671,-2.3409427 q 0.00517,-0.4030762 -0.4650879,-0.5529378 l 0.041341,-0.062012 q 0.041341,-0.062012 0.041341,-0.1395264 l 0.289388,-0.031006 q 0.3255616,-0.036174 0.6201172,0.1291911 l 0.08785,0.062012 q 0.4599203,-0.3203938 1.100708,-0.3203938 0.4650879,0 0.8268229,0.1912028 0.449585,0.2377115 0.4495849,0.6614584 z"
         style="fill:#000003;fill-opacity:1;stroke:none;stroke-width:0.07937499;stroke-miterlimit:4;stroke-dasharray:none;stroke-dashoffset:0;stroke-opacity:1;paint-order:normal"
         id="path905"
         inkscape:connector-curvature="0" />
      <path
         d="m 3.9871557,9.2182087 q 0,0.3513997 -0.144694,0.6717936 l -0.3152262,0.5167647 -0.015503,0.08268 q 0.00517,0.129191 0.3410644,0.444417 l 0.08785,0.289388 H 2.550551 l 0.072347,-0.37207 q 0.4702555,-0.697632 0.4702555,-1.6329753 0,-0.4185791 -0.1705322,-0.738973 -0.2170411,-0.4082438 -0.5891114,-0.4082438 -0.5012613,0 -0.8423258,0.3669027 0.160197,0.4030761 0.160197,0.7803141 0,0.3565674 -0.377238,1.1782223 l -0.015503,0.09302 q 0.00517,0.129191 0.3410644,0.444417 l 0.098185,0.289388 H 0.31812914 l 0.0155029,-0.361735 Q 0.7573788,10.081205 0.7573788,9.2078734 q 0,-0.4650879 -0.20153807,-0.7751465 -0.23254394,-0.361735 -0.67696125,-0.361735 -0.23254394,0 -0.54260252,0.1912028 -0.26871744,0.1653646 -0.26871744,0.2842204 v 1.9533689 q 0,0.155029 0.0981852,0.279053 l 0.29455565,0.19637 0.0465088,0.248047 H -2.0899925 l 0.2428792,-0.232544 q 0.1085205,-0.124023 0.1085205,-0.28422 V 8.1795124 q 0,-0.1860351 -0.3462321,-0.5219319 h 1.15238442 v 0.2842203 q 0.56844074,-0.3513997 1.15238441,-0.3513997 0.52193195,0 0.90433757,0.3307292 l 0.1601969,0.1912028 q 0.5115967,-0.521932 1.317749,-0.521932 0.6769612,0 1.0490315,0.4909261 0.3358968,0.4392497 0.3358968,1.1368815 z"
         style="fill:#000003;fill-opacity:1;stroke:none;stroke-width:0.07937499;stroke-miterlimit:4;stroke-dasharray:none;stroke-dashoffset:0;stroke-opacity:1;paint-order:normal"
         id="path907"
         inkscape:connector-curvature="0" />
      <path
         d="m 27.169203,10.995878 q -0.09302,0.170532 -0.237711,0.170532 h -4.020427 l -0.191202,-0.180867 0.428914,-0.237712 q 0.139526,-0.144694 0.1757,-0.232544 0,-0.06718 0.0155,-0.206706 l 0.0052,-0.01033 V 5.637032 q 0,-0.2222086 -0.201538,-0.4237467 L 22.714695,4.9755737 22.905898,4.7947062 h 4.020426 q 0.144694,0 0.237712,0.1705322 -0.237712,0.3824056 -0.237712,0.521932 l 0.04651,0.3513997 -0.310059,-0.098185 Q 26.182183,5.3786499 25.448378,5.2494588 l -0.258382,-0.020671 -0.26355,-0.010335 -0.428914,0.010335 -0.206706,0.020671 V 7.259672 h 2.651001 L 26.559421,7.9056273 26.037489,8.4017211 Q 25.567234,7.766101 24.600885,7.7247598 q -0.02067,0 -0.118856,-0.00517 -0.103353,-0.00517 -0.149862,0.010335 -0.04651,0.010335 -0.04134,0.041341 l 0.0052,2.9403892 0.206705,0.02067 0.428915,0.01033 0.26355,-0.01033 0.258382,-0.02067 q 0.733805,-0.129192 1.214396,-0.490927 l 0.310059,-0.09819 -0.04651,0.3514 q 0,0.139526 0.237711,0.521932 z"
         style="fill:#000003;fill-opacity:1;stroke:none;stroke-width:0.07937499;stroke-miterlimit:4;stroke-dasharray:none;stroke-dashoffset:0;stroke-opacity:1;paint-order:normal"
         id="path909"
         inkscape:connector-curvature="0" />
      <path
         d="m 31.473853,11.212919 h -1.379761 l 0.0155,-0.361735 q 0.423747,-0.780314 0.423747,-1.6536459 0,-1.1368815 -1.033529,-1.1368815 -0.232544,0 -0.542603,0.1912028 Q 28.68849,8.417224 28.68849,8.5360798 v 1.9533692 q 0,0.155029 0.09818,0.279053 l 0.294556,0.19637 0.04651,0.248047 h -1.596802 l 0.242879,-0.232544 q 0.108521,-0.124023 0.108521,-0.28422 V 8.1691771 q 0,-0.1860351 -0.346232,-0.5219319 h 1.152384 v 0.2842204 q 0.568441,-0.3513998 1.307414,-0.3513998 0.795817,0 1.302246,0.8319906 0.129191,0.3462321 0.129191,0.795817 0,0.3565674 -0.377238,1.1782226 l -0.0155,0.09302 q 0.0052,0.129191 0.341064,0.444417 z"
         style="fill:#000003;fill-opacity:1;stroke:none;stroke-width:0.07937499;stroke-miterlimit:4;stroke-dasharray:none;stroke-dashoffset:0;stroke-opacity:1;paint-order:normal"
         id="path911"
         inkscape:connector-curvature="0" />
      <path
         d="m 35.044689,11.14574 q -0.232544,0.0155 -0.43925,0.0155 -0.997355,0 -1.415934,-0.310058 -0.490926,-0.361735 -0.490926,-1.3177491 h 0.0052 L 32.708979,7.98314 H 31.851151 L 32.00618,7.6162373 q 0.103353,-0.077515 0.103353,-0.2067057 0,-0.031006 -0.0052,-0.093018 -0.0052,-0.067179 -0.0052,-0.098185 0,-0.1033528 0.04134,-0.1860351 0.201538,0.3772379 0.56844,0.434082 l 0.0052,-0.9456787 q 0,-0.3203939 -0.217041,-0.4289144 -0.139526,-0.041341 -0.201538,-0.082682 -0.09818,-0.041341 -0.320394,-0.3048909 h 1.545125 v 1.7983398 h 1.51412 l -0.26355,0.4805908 h -1.25057 v 1.6381428 q 0,0.6304521 0.206706,0.8474931 0.258382,0.273885 0.315226,0.310059 0.279053,0.180867 1.002523,0.366903 z"
         style="fill:#000003;fill-opacity:1;stroke:none;stroke-width:0.07937499;stroke-miterlimit:4;stroke-dasharray:none;stroke-dashoffset:0;stroke-opacity:1;paint-order:normal"
         id="path913"
         inkscape:connector-curvature="0" />
      <path
         d="m 39.028947,9.7401406 q -0.532267,1.4986164 -1.891357,1.4986164 -0.785482,0 -1.353923,-0.542602 -0.563273,-0.547771 -0.563273,-1.3280847 0,-0.8578287 0.506429,-1.3642577 0.511597,-0.5115967 1.369426,-0.5115967 0.65629,0 1.049031,0.3358968 0.346232,0.2997233 0.583944,0.9508463 l -2.635498,0.4702555 -0.01033,0.062012 q 0.01033,-0.051676 0.02584,-0.098185 0.0052,0.020671 0.0052,0.062012 0,0.6149495 0.3514,1.0335285 0.37207,0.449585 0.971517,0.449585 0.485758,0 0.930176,-0.294555 0.423746,-0.279053 0.661458,-0.7234707 z M 37.830054,8.4740681 Q 37.768042,8.1950154 37.50966,8.0296508 37.256446,7.8591186 36.972225,7.8952921 36.538143,7.9521361 36.321102,8.2983682 36.207414,8.561918 36.093726,8.8203002 Z"
         style="fill:#000003;fill-opacity:1;stroke:none;stroke-width:0.07937499;stroke-miterlimit:4;stroke-dasharray:none;stroke-dashoffset:0;stroke-opacity:1;paint-order:normal"
         id="path915"
         inkscape:connector-curvature="0" />
      <path
         d="m 42.853001,8.2932006 q 0,0.8474934 -1.405599,1.1937255 Q 41.798801,9.2027058 41.912489,9.068347 42.093357,8.8564737 42.119195,8.6911091 42.155365,8.4792357 42.072685,8.3035359 41.88665,8.0709919 41.7988,8.0296508 41.612765,7.9211303 41.354383,7.9211303 q -0.687296,0 -0.687296,0.2325439 v 2.4081218 l 0.03101,0.222209 q 0.01034,0.07751 0.320394,0.361735 h -1.508952 l 0.211874,-0.206706 q 0.09819,-0.09818 0.118856,-0.242879 l 0.02067,-2.3409427 q 0.0052,-0.4030762 -0.465088,-0.5529378 l 0.04134,-0.062012 q 0.04134,-0.062012 0.04134,-0.1395264 l 0.289388,-0.031006 q 0.325561,-0.036174 0.620117,0.1291911 l 0.08785,0.062012 q 0.45992,-0.3203938 1.100708,-0.3203938 0.465088,0 0.826823,0.1912028 0.449585,0.2377115 0.449585,0.6614583 z"
         style="fill:#000003;fill-opacity:1;stroke:none;stroke-width:0.07937499;stroke-miterlimit:4;stroke-dasharray:none;stroke-dashoffset:0;stroke-opacity:1;paint-order:normal"
         id="path917"
         inkscape:connector-curvature="0" />
      <path
         d="m 46.26881,11.14574 q -0.232544,0.0155 -0.439249,0.0155 -0.997356,0 -1.415935,-0.310058 Q 43.9227,10.489449 43.9227,9.5334349 h 0.0052 L 43.9331,7.983142 H 43.075271 L 43.2303,7.6162393 q 0.103353,-0.077515 0.103353,-0.2067057 0,-0.031006 -0.0052,-0.093018 -0.0052,-0.067179 -0.0052,-0.098185 0,-0.1033528 0.04134,-0.1860351 0.201538,0.3772379 0.568441,0.434082 l 0.0052,-0.9456787 q 0,-0.3203939 -0.217041,-0.4289144 -0.139526,-0.041341 -0.201538,-0.082682 -0.09819,-0.041341 -0.320394,-0.3048909 h 1.545125 v 1.7983398 h 1.51412 l -0.26355,0.4805908 h -1.25057 v 1.6381428 q 0,0.6304521 0.206706,0.8474931 0.258382,0.273885 0.315226,0.310059 0.279053,0.180867 1.002523,0.366903 z"
         style="fill:#000003;fill-opacity:1;stroke:none;stroke-width:0.07937499;stroke-miterlimit:4;stroke-dasharray:none;stroke-dashoffset:0;stroke-opacity:1;paint-order:normal"
         id="path919"
         inkscape:connector-curvature="0" />
      <path
         d="m 50.201392,11.140572 h -1.054199 q -0.129192,0 -0.217041,-0.149862 -0.07235,-0.124023 -0.05685,-0.1757 0.0052,-0.02584 0.02584,-0.08268 -0.609782,0.454753 -1.105876,0.454753 -0.573608,0 -0.935343,-0.258382 -0.413412,-0.289388 -0.413412,-0.842326 0,-1.0231936 0.919841,-1.2712405 0.821655,-0.2222086 1.054199,-0.3255615 0.335897,-0.1498616 0.485758,-0.4289144 -0.428914,-0.2532145 -0.98702,-0.2532145 -0.465087,0 -1.18339,0.1912028 0.63562,-0.5891113 1.62264,-0.5891113 0.485759,0 1.007691,0.1756999 0.346232,0.1653646 0.346232,0.5581054 V 10.62381 q 0,0.02584 0.05168,0.09302 0.124024,0.341065 0.43925,0.423747 z M 48.904313,10.169055 V 8.5360798 q -0.242879,0.2532145 -0.558105,0.361735 -0.63562,0.2222087 -0.713135,0.2738851 -0.294556,0.2015381 -0.294556,0.6769612 0,0.6976319 0.676962,0.6976319 0.418579,0 0.888834,-0.377238 z"
         style="fill:#000003;fill-opacity:1;stroke:none;stroke-width:0.07937499;stroke-miterlimit:4;stroke-dasharray:none;stroke-dashoffset:0;stroke-opacity:1;paint-order:normal"
         id="path921"
         inkscape:connector-curvature="0" />
      <path
         d="m 51.84987,6.520699 q 0,0.361735 -0.521932,0.4134115 -0.490926,0 -0.542602,-0.4030762 0,-0.3875732 0.527099,-0.4082438 0.475423,-0.020671 0.537435,0.3979085 z m 0.37207,4.625041 h -1.46761 l 0.237711,-0.232544 q 0.09819,-0.124024 0.09819,-0.284221 V 8.4068887 q 0,-0.3203938 -0.217041,-0.4289143 -0.139526,-0.041341 -0.201538,-0.082682 -0.09819,-0.041341 -0.320393,-0.304891 h 1.545125 v 3.0385736 q 0,0.124024 0.03101,0.191203 0.0155,0.06201 0.294555,0.325562 z"
         style="fill:#000003;fill-opacity:1;stroke:none;stroke-width:0.07937499;stroke-miterlimit:4;stroke-dasharray:none;stroke-dashoffset:0;stroke-opacity:1;paint-order:normal"
         id="path923"
         inkscape:connector-curvature="0" />
      <path
         d="m 56.526587,11.212919 h -1.379761 l 0.0155,-0.361735 q 0.423747,-0.780314 0.423747,-1.6536459 0,-1.1368815 -1.033529,-1.1368815 -0.232544,0 -0.542602,0.1912028 -0.268718,0.1653646 -0.268718,0.2842204 v 1.9533692 q 0,0.155029 0.09819,0.279053 l 0.294555,0.19637 0.04651,0.248047 h -1.596802 l 0.24288,-0.232544 q 0.10852,-0.124023 0.10852,-0.28422 V 8.1691771 q 0,-0.1860351 -0.346232,-0.5219319 h 1.152384 v 0.2842204 q 0.568441,-0.3513998 1.307414,-0.3513998 0.795817,0 1.302246,0.8319906 0.129191,0.3462321 0.129191,0.795817 0,0.3565674 -0.377238,1.1782226 l -0.0155,0.09302 q 0.0052,0.129191 0.341065,0.444417 z"
         style="fill:#000003;fill-opacity:1;stroke:none;stroke-width:0.07937499;stroke-miterlimit:4;stroke-dasharray:none;stroke-dashoffset:0;stroke-opacity:1;paint-order:normal"
         id="path925"
         inkscape:connector-curvature="0" />
      <path
         d="m 62.980968,9.2182087 q 0,0.3513997 -0.144694,0.6717936 l -0.315226,0.5167647 -0.0155,0.08268 q 0.0052,0.129191 0.341065,0.444417 l 0.08785,0.289388 h -1.390095 l 0.07235,-0.37207 q 0.470255,-0.697632 0.470255,-1.6329753 0,-0.4185791 -0.170532,-0.738973 Q 61.6994,8.0709899 61.32733,8.0709899 q -0.501262,0 -0.842326,0.3669027 0.160197,0.4030761 0.160197,0.7803141 0,0.3565674 -0.377238,1.1782223 l -0.0155,0.09302 q 0.0052,0.129191 0.341064,0.444417 l 0.09819,0.289388 h -1.37976 l 0.0155,-0.361735 q 0.423746,-0.780314 0.423746,-1.6536456 0,-0.4650879 -0.201538,-0.7751465 -0.232544,-0.361735 -0.676961,-0.361735 -0.232544,0 -0.542602,0.1912028 -0.268718,0.1653646 -0.268718,0.2842204 v 1.9533689 q 0,0.155029 0.09819,0.279053 l 0.294556,0.19637 0.04651,0.248047 H 56.90382 L 57.146699,10.99071 Q 57.25522,10.866687 57.25522,10.70649 V 8.1795124 q 0,-0.1860351 -0.346232,-0.5219319 h 1.152384 v 0.2842203 q 0.568441,-0.3513997 1.152384,-0.3513997 0.521932,0 0.904338,0.3307292 l 0.160197,0.1912028 q 0.511597,-0.521932 1.317749,-0.521932 0.676961,0 1.049031,0.4909261 0.335897,0.4392497 0.335897,1.1368815 z"
         style="fill:#000003;fill-opacity:1;stroke:none;stroke-width:0.07937499;stroke-miterlimit:4;stroke-dasharray:none;stroke-dashoffset:0;stroke-opacity:1;paint-order:normal"
         id="path927"
         inkscape:connector-curvature="0" />
      <path
         d="m 67.161592,9.7401406 q -0.532268,1.4986164 -1.891358,1.4986164 -0.785481,0 -1.353922,-0.542602 -0.563273,-0.547771 -0.563273,-1.3280847 0,-0.8578287 0.506429,-1.3642577 0.511596,-0.5115967 1.369425,-0.5115967 0.656291,0 1.049032,0.3358968 0.346232,0.2997233 0.583943,0.9508463 l -2.635498,0.4702555 -0.01033,0.062012 q 0.01033,-0.051676 0.02584,-0.098185 0.0052,0.020671 0.0052,0.062012 0,0.6149495 0.3514,1.0335285 0.37207,0.449585 0.971517,0.449585 0.485758,0 0.930175,-0.294555 0.423747,-0.279053 0.661459,-0.7234707 z M 65.962699,8.4740681 Q 65.900687,8.1950154 65.642305,8.0296508 65.38909,7.8591186 65.10487,7.8952921 64.670788,7.9521361 64.453747,8.2983682 64.340059,8.561918 64.22637,8.8203002 Z"
         style="fill:#000003;fill-opacity:1;stroke:none;stroke-width:0.07937499;stroke-miterlimit:4;stroke-dasharray:none;stroke-dashoffset:0;stroke-opacity:1;paint-order:normal"
         id="path929"
         inkscape:connector-curvature="0" />
      <path
         d="m 71.471411,11.212919 h -1.37976 l 0.0155,-0.361735 Q 70.5309,10.07087 70.5309,9.1975381 q 0,-1.1368815 -1.033528,-1.1368815 -0.232544,0 -0.542603,0.1912028 -0.268717,0.1653646 -0.268717,0.2842204 v 1.9533692 q 0,0.155029 0.09819,0.279053 l 0.294556,0.19637 0.04651,0.248047 H 67.5285 l 0.242879,-0.232544 q 0.10852,-0.124023 0.10852,-0.28422 V 8.1691771 q 0,-0.1860351 -0.346232,-0.5219319 h 1.152385 v 0.2842204 q 0.56844,-0.3513998 1.307413,-0.3513998 0.795817,0 1.302246,0.8319906 0.129191,0.3462321 0.129191,0.795817 0,0.3565674 -0.377237,1.1782226 l -0.0155,0.09302 q 0.0052,0.129191 0.341064,0.444417 z"
         style="fill:#000003;fill-opacity:1;stroke:none;stroke-width:0.07937499;stroke-miterlimit:4;stroke-dasharray:none;stroke-dashoffset:0;stroke-opacity:1;paint-order:normal"
         id="path931"
         inkscape:connector-curvature="0" />
      <path
         d="m 75.042248,11.14574 q -0.232544,0.0155 -0.43925,0.0155 -0.997355,0 -1.415934,-0.310058 -0.490926,-0.361735 -0.490926,-1.3177491 h 0.0052 l 0.0052,-1.5502929 h -0.857829 l 0.15503,-0.3669027 q 0.103352,-0.077515 0.103352,-0.2067057 0,-0.031006 -0.0052,-0.093018 -0.0052,-0.067179 -0.0052,-0.098185 0,-0.1033528 0.04134,-0.1860351 0.201538,0.3772379 0.568441,0.434082 l 0.0052,-0.9456787 q 0,-0.3203939 -0.217041,-0.4289144 -0.139527,-0.041341 -0.201538,-0.082682 -0.09819,-0.041341 -0.320394,-0.3048909 h 1.545125 v 1.7983398 h 1.514119 l -0.26358,0.4805927 h -1.25057 v 1.6381428 q 0,0.6304522 0.206706,0.8474932 0.258382,0.273885 0.315226,0.310059 0.279053,0.180867 1.002523,0.366903 z"
         style="fill:#000003;fill-opacity:1;stroke:none;stroke-width:0.07937499;stroke-miterlimit:4;stroke-dasharray:none;stroke-dashoffset:0;stroke-opacity:1;paint-order:normal"
         id="path933"
         inkscape:connector-curvature="0" />
    </g>
  </g>
</svg>
